<svg width="730" height="457" viewBox="0 0 730 457" fill="none" xmlns="http://www.w3.org/2000/svg">
<path d="M61.8757 455.496C61.8757 455.496 61.8757 435.761 52.5789 407.318C43.282 378.871 -4.63988 373.152 0.365325 332.381C27.1882 342.037 48.2872 381.829 52.933 393.938C37.1987 332.735 48.2872 289.464 48.2872 289.464C48.2872 289.464 69.7403 335.24 61.8757 394.251C90.1257 323.443 112.391 313.782 112.391 313.782C112.391 313.782 106.579 356.699 91.1987 379.23C75.8237 401.756 64.0216 401.402 64.0216 401.402C64.0216 401.402 64.381 438.433 71.1726 455.496H61.8757Z" fill="white"/>
<path d="M678.792 455.496C678.792 455.496 678.792 435.761 669.496 407.318C660.199 378.871 612.277 373.152 617.287 332.381C644.105 342.037 665.204 381.829 669.855 393.938C654.121 332.735 665.204 289.464 665.204 289.464C665.204 289.464 686.662 335.24 678.792 394.251C707.048 323.443 729.308 313.782 729.308 313.782C729.308 313.782 723.496 356.699 708.121 379.23C692.74 401.756 680.938 401.402 680.938 401.402C680.938 401.402 681.298 438.433 688.089 455.496H678.792Z" fill="white"/>
<path d="M205.563 413.928L208.454 436.1L202.016 447.183L186.459 441.105L181.605 419.469" fill="#F0C9CF"/>
<path d="M241.673 451.641L207.735 431.985L201.303 441.105H186.459L184.85 454.871H240.803C242.574 454.871 243.204 452.527 241.673 451.641Z" fill="#1F2251"/>
<path d="M84.86 413.928L80.5684 436.1L87.0059 447.183L102.563 441.105L108.824 419.469" fill="#F0C9CF"/>
<path d="M222.495 197.746L197.074 231.193C196.193 232.355 195.662 233.74 195.563 235.199L193.391 264.975L184.271 202.397L197.146 180.855L195.855 176.568L190.995 160.433L216.068 150.964L217.594 155.475L225.553 179.074C227.693 185.417 226.542 192.407 222.495 197.746Z" fill="#F0C9CF"/>
<path d="M217.595 155.475L195.855 176.568L190.996 160.433L216.069 150.964L217.595 155.475Z" fill="#D683A7"/>
<path d="M210.199 419.652L179.454 424.652L155.292 320.876L149.298 295.131L149.147 294.49L109.954 427.272L79.1414 418.808L107.782 234.318L109.954 220.339L188.027 219.173L188.865 226.792L210.199 419.652Z" fill="#99A3CA"/>
<path d="M188.865 226.792L107.782 234.318L108.943 226.792L109.954 220.339L188.027 219.173L188.725 225.49L188.865 226.792Z" fill="#7988B8"/>
<path d="M188.725 225.49C171.777 227.943 120.949 227.048 108.943 226.792L109.954 220.339L188.027 219.173L188.725 225.49Z" fill="#1F2251"/>
<path d="M220.048 149.464L201.975 160.22L199.652 161.595L194.204 164.845V164.985L194.089 167.308L193.266 186.261L193.152 188.584L192.329 207.537L192.23 209.86L191.964 215.813C191.964 215.813 195.183 219.386 194.287 222.423C194.063 223.167 188.699 223.74 180.699 224.131C179.944 224.173 179.173 224.204 178.376 224.246C172.845 224.47 166.287 224.621 159.423 224.693C158.657 224.693 157.886 224.709 157.1 224.709C150.798 224.751 144.298 224.709 138.147 224.595C137.365 224.584 136.595 224.553 135.824 224.542C128.626 224.371 122.011 224.105 116.876 223.683C116.063 223.626 115.277 223.558 114.548 223.49C109.397 222.996 106.24 222.355 106.313 221.527C106.678 217.24 109.35 214.371 109.35 214.371L109.365 209.86L109.381 207.537L109.449 188.584L109.464 186.261L109.532 167.308V166.105L107.615 164.985L95.5841 157.98L93.256 156.621L78.2456 147.871L79.0685 146.032L80.1206 143.709L88.6362 124.74L89.6883 122.433L93.256 114.475L94.0008 112.824C94.4904 111.746 95.0112 110.678 95.5841 109.657C96.7873 107.459 98.1727 105.402 99.7144 103.464C100.345 102.667 101.006 101.886 101.688 101.141C105.334 97.1362 109.704 93.8445 114.548 91.4383C115.303 91.0424 116.089 90.6935 116.876 90.3549C120.22 88.9122 123.766 87.8914 127.449 87.3185L133.022 86.4487L135.824 86.0164L138.147 85.6518L138.235 85.6362L157.1 87.2039L159.423 87.4018L165.141 87.8758L169.959 88.5528C170.251 88.5945 170.563 88.6362 170.855 88.6883C173.433 89.0945 175.954 89.7403 178.376 90.5841C179.162 90.8445 179.933 91.1414 180.699 91.4643C186.136 93.6883 191.063 96.9799 195.183 101.141C195.928 101.886 196.657 102.667 197.339 103.464C198.152 104.407 198.923 105.386 199.652 106.397C200.49 107.542 201.261 108.751 201.975 109.98C202.761 111.313 203.475 112.699 204.121 114.126L207.86 122.433L208.912 124.74L217.454 143.709L218.506 146.032L220.048 149.464Z" fill="#647BF4"/>
<path d="M157.1 224.709V209.86H138.146V224.595C137.365 224.584 136.594 224.553 135.824 224.542V209.86H116.876V223.683C116.063 223.626 115.277 223.558 114.548 223.49V209.86H109.365L109.381 207.537H114.548V188.584H109.449L109.464 186.261H114.548V167.308H109.532V166.105L107.615 164.985H114.548V146.032H95.584V157.98L93.2559 156.621V146.032H79.0684L80.1204 143.709H93.2559V124.74H88.6361L89.6882 122.433H93.2559V114.475L94.0007 112.824C94.4902 111.746 95.0111 110.678 95.584 109.657V122.433H114.548V103.464H99.7142C100.344 102.667 101.006 101.886 101.688 101.141H114.548V91.4383C115.303 91.0424 116.089 90.6935 116.876 90.3549V101.141H135.824V86.0164L138.146 85.6518V101.141H157.1V87.2039L159.423 87.4018V101.141H178.376V90.5841C179.162 90.8445 179.933 91.1414 180.699 91.4643V101.141H195.183C195.928 101.886 196.657 102.667 197.339 103.464H180.699V122.433H199.652V106.397C200.49 107.542 201.261 108.751 201.975 109.98V122.433H207.86L208.912 124.74H201.975V143.709H217.454L218.506 146.032H201.975V160.22L199.652 161.595V146.032H180.699V164.985H194.204L194.089 167.308H180.699V186.261H193.266L193.152 188.584H180.699V207.537H192.329L192.23 209.86H180.699V224.131C179.943 224.173 179.173 224.204 178.376 224.246V209.86H159.423V224.693C158.657 224.693 157.886 224.709 157.1 224.709ZM159.423 188.584V207.537H178.376V188.584H159.423ZM138.146 188.584V207.537H157.1V188.584H138.146ZM116.876 188.584V207.537H135.824V188.584H116.876ZM159.423 167.308V186.261H178.376V167.308H159.423ZM138.146 167.308V186.261H157.1V167.308H138.146ZM116.876 167.308V186.261H135.824V167.308H116.876ZM159.423 146.032V164.985H178.376V146.032H159.423ZM138.146 146.032V164.985H157.1V146.032H138.146ZM116.876 146.032V164.985H135.824V146.032H116.876ZM180.699 124.74V143.709H199.652V124.74H180.699ZM159.423 124.74V143.709H178.376V124.74H159.423ZM138.146 124.74V143.709H157.1V124.74H138.146ZM116.876 124.74V143.709H135.824V124.74H116.876ZM95.584 124.74V143.709H114.548V124.74H95.584ZM159.423 103.464V122.433H178.376V103.464H159.423ZM138.146 103.464V122.433H157.1V103.464H138.146ZM116.876 103.464V122.433H135.824V103.464H116.876Z" fill="#7D9AF7"/>
<path d="M170.855 88.6883C169.048 96.3237 164.777 103.777 154.959 103.688C139.006 103.553 134.282 91.3914 133.021 86.4487L138.235 85.6362L165.141 87.8758L169.959 88.5528C170.251 88.5945 170.563 88.6362 170.855 88.6883Z" fill="white"/>
<path d="M191.35 160.402L189.308 129.49C189.293 129.298 189.126 129.152 188.933 129.162C188.74 129.178 188.595 129.344 188.605 129.537L190.652 160.449C190.662 160.641 190.829 160.787 191.022 160.777C191.22 160.761 191.36 160.594 191.35 160.402Z" fill="#1F2251"/>
<path d="M177.662 36.6987C177.662 36.6987 180.996 40.3393 178.376 46.657C175.756 52.9747 174.438 58.3393 174.204 64.3028C174.006 69.2351 152.548 72.1362 145.178 72.9747C143.652 73.157 142.73 73.2403 142.73 73.2403L136.891 61.7716C136.121 59.7403 134.256 55.9018 132.631 51.4591C129.969 44.2612 127.923 35.4956 132.126 30.3237C138.917 21.9799 146.485 25.6726 158.079 19.9591C169.678 14.2299 175.516 8.90701 182.183 16.7403C188.865 24.5685 177.662 36.6987 177.662 36.6987Z" fill="#1F2251"/>
<path d="M147.141 70.4956L145.178 72.9747C143.652 73.157 142.73 73.2403 142.73 73.2403L136.891 61.7716C136.12 59.7403 134.256 55.9018 132.631 51.4591C138.386 49.1101 142.381 43.0841 142.381 43.0841L147.141 70.4956Z" fill="#161937"/>
<path d="M165.141 87.8758C165.141 87.8758 165.688 99.2247 153.402 98.7768C141.131 98.3289 138.235 85.6362 138.235 85.6362L141.636 84.9226C141.636 84.9226 142.886 71.4226 141.636 61.7716L165.152 73.7456C164.928 73.9539 164.719 74.2091 164.522 74.4747C161.792 78.2247 162.1 86.7976 162.1 86.7976L165.141 87.8758Z" fill="#F0C9CF"/>
<path d="M162.1 86.7976C146.964 87.2455 142.735 69.5424 142.735 69.5424L164.522 74.4747C161.792 78.2247 162.1 86.7976 162.1 86.7976Z" fill="#D683A7"/>
<path d="M175.772 62.7768C175.813 64.9799 175.699 67.0945 175.407 69.0685C174.173 77.2195 169.834 82.9903 159.329 82.1518C143.824 80.9018 141.006 65.6622 141.006 65.6622C141.006 65.6622 137.016 68.9955 133.136 65.1883C129.272 61.3758 131.23 55.5945 134.985 54.933C137.016 54.5841 139.006 56.6414 140.417 58.6153C141.022 59.4851 142.381 59.0372 142.381 57.9903V43.0841C142.381 43.0841 161.261 43.8705 172.464 39.7508L172.662 39.683C174.454 41.3341 175.115 43.532 175.308 45.9435C175.574 49.3028 174.975 53.058 175.339 56.2247C175.589 58.4383 175.756 60.6518 175.772 62.7768Z" fill="#F0C9CF"/>
<path d="M164.699 66.0893L166.188 65.2143C167.027 64.7247 167.501 63.8393 167.501 62.9278C167.501 62.5737 167.428 62.2143 167.282 61.8758L164.844 56.2299C164.766 56.0528 164.563 55.9747 164.386 56.0476C164.209 56.1258 164.126 56.3341 164.204 56.5112L166.641 62.1518C166.745 62.4018 166.798 62.6674 166.798 62.9278C166.798 63.5997 166.449 64.2508 165.834 64.6101L164.344 65.4851C164.178 65.5841 164.126 65.7976 164.219 65.9643C164.318 66.131 164.532 66.1883 164.699 66.0893Z" fill="#C85E8B"/>
<path d="M159.147 60.381C159.147 61.1205 158.667 61.7195 158.084 61.7195C157.496 61.7195 157.016 61.1205 157.016 60.381C157.016 59.6414 157.496 59.0372 158.084 59.0372C158.667 59.0372 159.147 59.6414 159.147 60.381Z" fill="black"/>
<path d="M171.933 59.7403C171.933 60.4799 171.454 61.0789 170.865 61.0789C170.282 61.0789 169.803 60.4799 169.803 59.7403C169.803 58.9955 170.282 58.3966 170.865 58.3966C171.454 58.3966 171.933 58.9955 171.933 59.7403Z" fill="black"/>
<path d="M133.891 59.3445C134.298 59.1153 134.709 59.0112 135.115 59.0112C135.834 59.0112 136.537 59.3445 137.068 59.933C137.6 60.5268 137.949 61.3758 137.949 62.3862C137.949 62.6258 137.933 62.881 137.886 63.1414C137.855 63.3289 137.985 63.5112 138.178 63.5424C138.365 63.5737 138.548 63.4435 138.579 63.2508C138.626 62.9539 138.652 62.6674 138.652 62.3862C138.647 60.0372 137.001 58.3133 135.115 58.308C134.589 58.308 134.053 58.4487 133.548 58.7351C133.381 58.8289 133.318 59.0424 133.417 59.2143C133.511 59.381 133.725 59.4383 133.891 59.3445Z" fill="#C85E8B"/>
<path d="M159.173 72.1154C159.204 72.1414 160.798 73.7768 163.308 73.7872C164.287 73.7872 165.402 73.5268 166.574 72.8237C166.74 72.7247 166.798 72.5112 166.699 72.3445C166.6 72.1779 166.381 72.1258 166.22 72.2247C165.141 72.8654 164.168 73.0841 163.308 73.0841C162.214 73.0893 161.303 72.7195 160.662 72.3497C160.339 72.1622 160.089 71.9799 159.923 71.8393L159.73 71.6779L159.673 71.6206C159.537 71.4851 159.313 71.4851 159.178 71.6154C159.043 71.756 159.037 71.9747 159.173 72.1154Z" fill="#C85E8B"/>
<path d="M153.308 54.8445L153.319 54.8341C153.381 54.7455 153.761 54.2351 154.433 53.756C155.11 53.282 156.058 52.8393 157.324 52.8393C157.923 52.8393 158.589 52.9383 159.339 53.1883C159.615 53.282 159.912 53.131 160.006 52.8549C160.1 52.5841 159.949 52.282 159.673 52.1883C158.824 51.907 158.037 51.7872 157.324 51.7872C155.704 51.7872 154.475 52.4018 153.667 53.0164C152.86 53.6258 152.459 54.2351 152.433 54.2664C152.277 54.5112 152.339 54.8341 152.584 54.9955C152.824 55.157 153.152 55.0893 153.308 54.8445Z" fill="#1F2251"/>
<path d="M174.589 52.5164C174.547 52.4695 173.199 50.9799 170.808 50.9695C169.719 50.9695 168.438 51.2924 167.032 52.1831C166.787 52.3341 166.714 52.6622 166.87 52.907C167.021 53.1518 167.35 53.2247 167.594 53.0685C168.86 52.2768 169.928 52.0216 170.808 52.0216C171.771 52.0216 172.527 52.3289 173.047 52.631C173.303 52.7872 173.501 52.9383 173.631 53.0528L173.777 53.1831L173.813 53.2195L173.912 53.131L173.813 53.2195L173.912 53.131L173.813 53.2195C174.006 53.4331 174.339 53.4539 174.553 53.256C174.771 53.0633 174.787 52.7299 174.589 52.5164Z" fill="#1F2251"/>
<path d="M157.162 65.7872C157.162 67.8601 155.48 69.5424 153.407 69.5424C151.334 69.5424 149.652 67.8601 149.652 65.7872C149.652 63.7143 151.334 62.032 153.407 62.032C155.48 62.032 157.162 63.7143 157.162 65.7872Z" fill="#EAB7C0"/>
<path d="M175.771 62.7768C175.813 64.9799 175.699 67.0945 175.407 69.0685C174.86 69.3601 174.23 69.5424 173.558 69.5424C171.485 69.5424 169.803 67.8653 169.803 65.7872C169.803 63.7143 171.485 62.0372 173.558 62.0372C174.386 62.0372 175.157 62.3028 175.771 62.7768Z" fill="#EAB7C0"/>
<path d="M183.777 189.214H164.454C162.136 189.214 160.636 187.339 161.11 185.022L169.303 144.673C169.772 142.355 172.032 140.475 174.35 140.475H196.444C198.761 140.475 200.256 142.355 199.787 144.673L188.824 185.022C188.355 187.339 186.095 189.214 183.777 189.214Z" fill="#2A3551"/>
<path d="M186.548 190.938H167.225C164.907 190.938 163.407 189.058 163.881 186.74L172.074 146.391C172.542 144.074 174.803 142.193 177.121 142.193H196.443C198.761 142.193 200.256 144.074 199.787 146.391L191.594 186.74C191.126 189.058 188.865 190.938 186.548 190.938Z" fill="#364380"/>
<path d="M181.834 182.787C181.834 186.777 177.058 190.292 177.058 190.292C177.058 190.292 178.193 195.73 169.204 197.563C160.193 199.412 151.079 191.61 151.079 191.61L92.9903 203.865C91.4799 204.188 89.9643 204.339 88.4695 204.339C81.9539 204.339 75.6778 201.428 71.4799 196.246C66.2143 189.761 65.0893 180.839 68.6049 173.261L76.9955 155.136L79.9122 148.834L109.532 166.105L107.417 169.746L104.35 175.042L151.371 173.376C151.371 173.376 156.204 170.027 159.298 165.923C162.407 161.803 163.527 160.85 165.98 162.407C168.417 163.949 165.74 170.99 163.657 173.667C171.162 177.839 180.167 174.621 183.798 175.152C187.438 175.699 187.496 179.985 181.834 182.787Z" fill="#F0C9CF"/>
<path d="M181.694 182.464C180.36 183.048 178.345 183.308 176.121 183.308C173.605 183.308 170.808 182.98 168.381 182.47C165.954 181.959 163.876 181.256 162.834 180.558C162.678 180.454 162.459 180.496 162.35 180.657C162.246 180.818 162.287 181.037 162.449 181.141C163.641 181.933 165.756 182.631 168.235 183.157C170.714 183.673 173.542 184.006 176.121 184.006C178.402 184.006 180.48 183.751 181.975 183.11C182.152 183.032 182.23 182.829 182.157 182.652C182.079 182.47 181.876 182.391 181.694 182.464Z" fill="#C85E8B"/>
<path d="M177.001 189.954C174.944 190.355 172.803 190.584 170.735 190.584C166.449 190.589 162.49 189.6 160.147 187.251C160.011 187.11 159.787 187.11 159.652 187.251C159.516 187.386 159.516 187.605 159.652 187.746C162.214 190.298 166.35 191.282 170.735 191.287C172.855 191.287 175.037 191.053 177.131 190.641C177.324 190.605 177.449 190.423 177.407 190.23C177.371 190.042 177.188 189.917 177.001 189.954Z" fill="#C85E8B"/>
<path d="M175.006 159.782C173.803 159.782 173.022 158.808 173.256 157.605L174.798 149.751C175.032 148.553 176.199 147.579 177.402 147.579C178.6 147.579 179.386 148.553 179.147 149.751L177.605 157.605C177.37 158.808 176.204 159.782 175.006 159.782Z" fill="#445EC7"/>
<path d="M104.35 174.688H88.7352C88.5425 174.688 88.3862 174.845 88.3862 175.037C88.3862 175.23 88.5425 175.391 88.7352 175.391H104.35C104.542 175.391 104.699 175.23 104.699 175.037C104.699 174.845 104.542 174.688 104.35 174.688Z" fill="#C85E8B"/>
<path d="M197.423 181.074L205.714 170.97C205.839 170.824 205.818 170.6 205.667 170.48C205.516 170.355 205.298 170.376 205.173 170.527L196.881 180.626C196.756 180.777 196.782 181.001 196.928 181.121C197.079 181.246 197.298 181.225 197.423 181.074Z" fill="#C85E8B"/>
<path d="M109.85 166.261L126.772 133.72C126.86 133.548 126.792 133.334 126.621 133.246C126.449 133.157 126.24 133.225 126.147 133.397L109.225 165.938C109.136 166.11 109.204 166.318 109.376 166.407C109.548 166.501 109.756 166.433 109.85 166.261Z" fill="#1F2251"/>
<path d="M109.532 166.105L107.417 169.746L76.9956 155.136L79.9123 148.834L109.532 166.105Z" fill="#D683A7"/>
<path d="M149.475 294.584L160.235 259.537C160.292 259.355 160.188 259.157 160.006 259.1C159.818 259.042 159.62 259.147 159.563 259.334L148.808 294.381C148.751 294.563 148.855 294.761 149.042 294.818C149.225 294.876 149.417 294.772 149.475 294.584Z" fill="#1F2251"/>
<path d="M47.3497 451.641L81.2872 431.985L87.7247 441.105H102.563L104.173 454.871H48.2195C46.4487 454.871 45.8185 452.527 47.3497 451.641Z" fill="#1F2251"/>
<path d="M109.324 428.178L79.454 422.027C77.4279 421.61 76.1206 419.626 76.5425 417.6L77.5165 412.86C77.9331 410.829 79.9175 409.527 81.9436 409.943L111.813 416.094C113.839 416.511 115.147 418.496 114.73 420.522L113.751 425.261C113.334 427.287 111.35 428.594 109.324 428.178Z" fill="#99A3CA"/>
<path d="M81.282 410.225L112.318 416.615C112.506 416.652 112.693 416.532 112.73 416.339C112.772 416.152 112.647 415.964 112.459 415.928L81.4227 409.537C81.2352 409.496 81.0529 409.621 81.0112 409.808C80.9695 410.001 81.0945 410.183 81.282 410.225Z" fill="#1F2251"/>
<path d="M210.641 422.454L180.657 428.006C178.621 428.386 176.662 427.042 176.287 425.006L175.407 420.246C175.027 418.209 176.371 416.256 178.407 415.876L208.391 410.324C210.428 409.943 212.386 411.292 212.761 413.329L213.641 418.089C214.016 420.121 212.673 422.079 210.641 422.454Z" fill="#99A3CA"/>
<path d="M177.902 416.386L209.058 410.615C209.246 410.579 209.371 410.397 209.339 410.209C209.303 410.016 209.121 409.891 208.928 409.928L177.772 415.699C177.584 415.73 177.459 415.917 177.49 416.105C177.527 416.292 177.709 416.423 177.902 416.386Z" fill="#1F2251"/>
<path d="M118.048 212.266L186.115 202.251C186.308 202.225 186.438 202.048 186.412 201.855C186.381 201.662 186.204 201.532 186.011 201.558L117.949 211.574C117.756 211.6 117.626 211.777 117.652 211.97C117.678 212.162 117.855 212.292 118.048 212.266Z" fill="#1F2251"/>
<path d="M159.063 263.73L155.292 320.876L149.298 295.131L149.339 293.829L159.063 263.73Z" fill="#7988B8"/>
<path d="M422.61 92.7039L407.798 148.501C405.438 157.402 396.167 162.558 387.36 159.881L377.365 156.834L407.532 85.8758L422.61 92.7039Z" fill="#F0C9CF"/>
<path d="M413.553 77.2299C412.36 75.7403 402.943 80.7508 400.678 81.2872C398.412 81.8237 400.438 87.4747 404.61 86.9122C408.782 86.3497 410.095 81.9539 410.095 81.9539L413.553 77.2299Z" fill="#D683A7"/>
<path d="M406.626 65.2351L406.339 101.73L410.272 100.897V65.2508C410.272 64.4591 409.761 63.756 409.011 63.5112C407.839 63.1362 406.631 64.0008 406.626 65.2351Z" fill="#2A3551"/>
<path d="M412.245 77.8601C412.245 77.8601 400.199 89.9278 402.522 93.4122C404.85 96.9018 412.272 90.5528 413.699 88.5893C413.522 92.6101 418.662 96.3914 421.745 95.9174C426.397 95.2039 428.272 90.4643 426.844 88.3185C425.412 86.1726 416.74 81.1674 416.74 81.1674C416.74 81.1674 414.542 74.6414 412.245 77.8601Z" fill="#F0C9CF"/>
<path d="M294.704 413.928L290.412 436.1L296.85 447.183L312.407 441.105L318.662 419.469" fill="#F0C9CF"/>
<path d="M257.193 451.641L291.126 431.985L297.563 441.105H312.407L314.016 454.871H258.063C256.292 454.871 255.662 452.527 257.193 451.641Z" fill="#1F2251"/>
<path d="M440.735 413.928L445.021 436.1L438.589 447.183L423.032 441.105L416.771 419.469" fill="#F0C9CF"/>
<path d="M478.24 451.641L444.308 431.985L437.876 441.105H423.032L421.423 454.871H477.376C479.147 454.871 479.777 452.527 478.24 451.641Z" fill="#1F2251"/>
<path d="M443.527 406.063L411.469 413.084L362.516 249.188L323.454 410.266L291.673 405.589L312.079 234.345L315.214 207.97L362.74 204.339L394.662 201.907L395.251 204.339L395.584 205.756L443.527 406.063Z" fill="#647BF4"/>
<path d="M395.584 205.756L312.079 234.345L315.214 207.97L362.74 204.339H395.251L395.584 205.756Z" fill="#4257B2"/>
<path d="M397.73 200.615C398.006 202.673 396.579 204.579 394.506 204.886L317.949 216.152C315.345 216.527 313.032 214.454 313.131 211.824L315.329 151.777L316.938 108.048L328.636 82.5112L331.058 77.2299H357.907L360.834 77.6258C361.563 77.7247 362.292 77.8341 363.006 77.9747C374.589 80.2039 384.506 87.7091 389.798 98.3393L406.339 131.647L390.6 147.574L397.73 200.615Z" fill="#EBAF65"/>
<path d="M326.74 101.339C326.251 102.542 326.042 103.829 326.141 105.121L329.084 143.709L326.615 145.152L315.329 151.777L301.183 160.068L298.813 161.454L294.334 123.022C292.37 106.157 301.475 89.9487 316.897 82.8653L326.449 78.4643L331.084 76.3341L334.407 77.2299L336.365 77.7664L332.568 87.0528L326.74 101.339Z" fill="#EBAF65"/>
<path d="M314.475 202.485C314.126 202.485 313.787 202.423 313.475 202.298L313.667 197.063C313.923 196.985 314.193 196.943 314.475 196.943C316.006 196.943 317.251 198.183 317.251 199.714C317.251 201.246 316.006 202.485 314.475 202.485Z" fill="#F0C37E"/>
<path d="M330.886 202.485C329.355 202.485 328.115 201.246 328.115 199.714C328.115 198.183 329.355 196.943 330.886 196.943C332.417 196.943 333.657 198.183 333.657 199.714C333.657 201.246 332.417 202.485 330.886 202.485Z" fill="#F0C37E"/>
<path d="M347.292 202.485C345.766 202.485 344.521 201.246 344.521 199.714C344.521 198.183 345.766 196.943 347.292 196.943C348.824 196.943 350.063 198.183 350.063 199.714C350.063 201.246 348.824 202.485 347.292 202.485Z" fill="#F0C37E"/>
<path d="M363.704 202.485C362.173 202.485 360.933 201.246 360.933 199.714C360.933 198.183 362.173 196.943 363.704 196.943C365.235 196.943 366.475 198.183 366.475 199.714C366.475 201.246 365.235 202.485 363.704 202.485Z" fill="#F0C37E"/>
<path d="M380.11 202.485C378.579 202.485 377.339 201.246 377.339 199.714C377.339 198.183 378.579 196.943 380.11 196.943C381.641 196.943 382.886 198.183 382.886 199.714C382.886 201.246 381.641 202.485 380.11 202.485Z" fill="#F0C37E"/>
<path d="M396.522 202.485C394.99 202.485 393.746 201.246 393.746 199.714C393.746 198.183 394.99 196.943 396.522 196.943C396.772 196.943 397.016 196.98 397.246 197.042L397.73 200.615C397.751 200.792 397.766 200.97 397.766 201.141C397.761 201.532 397.699 201.912 397.584 202.272C397.256 202.412 396.897 202.485 396.522 202.485Z" fill="#F0C37E"/>
<path d="M314.475 187.178C314.329 187.178 314.178 187.162 314.032 187.141L314.235 181.641C314.313 181.636 314.397 181.631 314.475 181.631C316.006 181.631 317.251 182.876 317.251 184.402C317.251 185.933 316.006 187.178 314.475 187.178Z" fill="#F0C37E"/>
<path d="M330.886 187.178C329.355 187.178 328.115 185.933 328.115 184.402C328.115 182.876 329.355 181.631 330.886 181.631C332.417 181.631 333.657 182.876 333.657 184.402C333.657 185.933 332.417 187.178 330.886 187.178Z" fill="#F0C37E"/>
<path d="M347.292 187.178C345.766 187.178 344.521 185.933 344.521 184.402C344.521 182.876 345.766 181.631 347.292 181.631C348.824 181.631 350.063 182.876 350.063 184.402C350.063 185.933 348.824 187.178 347.292 187.178Z" fill="#F0C37E"/>
<path d="M363.704 187.178C362.173 187.178 360.933 185.933 360.933 184.402C360.933 182.876 362.173 181.631 363.704 181.631C365.235 181.631 366.475 182.876 366.475 184.402C366.475 185.933 365.235 187.178 363.704 187.178Z" fill="#F0C37E"/>
<path d="M380.11 187.178C378.579 187.178 377.339 185.933 377.339 184.402C377.339 182.876 378.579 181.631 380.11 181.631C381.641 181.631 382.886 182.876 382.886 184.402C382.886 185.933 381.641 187.178 380.11 187.178Z" fill="#F0C37E"/>
<path d="M395.912 187.11C394.673 186.834 393.746 185.725 393.746 184.402C393.746 183.345 394.345 182.423 395.22 181.954L395.912 187.11Z" fill="#F0C37E"/>
<path d="M314.589 171.865L314.792 166.339C316.178 166.496 317.251 167.667 317.251 169.095C317.251 170.584 316.069 171.803 314.589 171.865Z" fill="#F0C37E"/>
<path d="M330.886 171.865C329.355 171.865 328.115 170.626 328.115 169.095C328.115 167.563 329.355 166.324 330.886 166.324C332.417 166.324 333.657 167.563 333.657 169.095C333.657 170.626 332.417 171.865 330.886 171.865Z" fill="#F0C37E"/>
<path d="M347.292 171.865C345.766 171.865 344.521 170.626 344.521 169.095C344.521 167.563 345.766 166.324 347.292 166.324C348.824 166.324 350.063 167.563 350.063 169.095C350.063 170.626 348.824 171.865 347.292 171.865Z" fill="#F0C37E"/>
<path d="M363.704 171.865C362.173 171.865 360.933 170.626 360.933 169.095C360.933 167.563 362.173 166.324 363.704 166.324C365.235 166.324 366.475 167.563 366.475 169.095C366.475 170.626 365.235 171.865 363.704 171.865Z" fill="#F0C37E"/>
<path d="M380.11 171.865C378.579 171.865 377.339 170.626 377.339 169.095C377.339 167.563 378.579 166.324 380.11 166.324C381.641 166.324 382.886 167.563 382.886 169.095C382.886 170.626 381.641 171.865 380.11 171.865Z" fill="#F0C37E"/>
<path d="M298.24 156.548L297.6 151.053C297.751 151.022 297.907 151.011 298.068 151.011C299.6 151.011 300.839 152.251 300.839 153.782C300.839 155.256 299.693 156.459 298.24 156.548Z" fill="#F0C37E"/>
<path d="M315.157 156.47L315.329 151.777L315.933 151.423C316.719 151.907 317.251 152.787 317.251 153.782C317.251 155.079 316.36 156.167 315.157 156.47Z" fill="#F0C37E"/>
<path d="M311.709 153.897C311.709 153.86 311.704 153.824 311.704 153.782C311.704 152.251 312.949 151.011 314.475 151.011C315.011 151.011 315.506 151.162 315.933 151.423L315.329 151.777L311.709 153.897Z" fill="#F0C37E"/>
<path d="M330.886 156.553C329.355 156.553 328.115 155.313 328.115 153.782C328.115 152.251 329.355 151.011 330.886 151.011C332.417 151.011 333.657 152.251 333.657 153.782C333.657 155.313 332.417 156.553 330.886 156.553Z" fill="#F0C37E"/>
<path d="M347.292 156.553C345.766 156.553 344.521 155.313 344.521 153.782C344.521 152.251 345.766 151.011 347.292 151.011C348.824 151.011 350.063 152.251 350.063 153.782C350.063 155.313 348.824 156.553 347.292 156.553Z" fill="#F0C37E"/>
<path d="M363.704 156.553C362.173 156.553 360.933 155.313 360.933 153.782C360.933 152.251 362.173 151.011 363.704 151.011C365.235 151.011 366.475 152.251 366.475 153.782C366.475 155.313 365.235 156.553 363.704 156.553Z" fill="#F0C37E"/>
<path d="M380.11 156.553C379.667 156.553 379.246 156.449 378.876 156.266L382.683 154.824C382.272 155.839 381.277 156.553 380.11 156.553Z" fill="#F0C37E"/>
<path d="M298.068 141.246C297.438 141.246 296.855 141.032 296.391 140.678L295.928 136.709C296.438 136.095 297.209 135.699 298.068 135.699C299.6 135.699 300.839 136.943 300.839 138.475C300.839 140.001 299.6 141.246 298.068 141.246Z" fill="#F0C37E"/>
<path d="M314.475 141.246C312.949 141.246 311.704 140.001 311.704 138.475C311.704 136.943 312.949 135.699 314.475 135.699C316.006 135.699 317.251 136.943 317.251 138.475C317.251 140.001 316.006 141.246 314.475 141.246Z" fill="#F0C37E"/>
<path d="M330.886 141.246C330.068 141.246 329.334 140.886 328.824 140.324L328.568 136.954C329.063 136.199 329.917 135.699 330.886 135.699C332.417 135.699 333.657 136.943 333.657 138.475C333.657 140.001 332.417 141.246 330.886 141.246Z" fill="#F0C37E"/>
<path d="M328.824 140.324C328.381 139.834 328.115 139.183 328.115 138.475C328.115 137.912 328.282 137.391 328.568 136.954L328.824 140.324Z" fill="#F0C37E"/>
<path d="M347.292 141.246C345.766 141.246 344.521 140.001 344.521 138.475C344.521 136.943 345.766 135.699 347.292 135.699C348.824 135.699 350.063 136.943 350.063 138.475C350.063 140.001 348.824 141.246 347.292 141.246Z" fill="#F0C37E"/>
<path d="M363.704 141.246C362.173 141.246 360.933 140.001 360.933 138.475C360.933 136.943 362.173 135.699 363.704 135.699C365.235 135.699 366.475 136.943 366.475 138.475C366.475 140.001 365.235 141.246 363.704 141.246Z" fill="#F0C37E"/>
<path d="M298.068 125.933C296.537 125.933 295.298 124.693 295.298 123.162C295.298 121.631 296.537 120.391 298.068 120.391C299.6 120.391 300.839 121.631 300.839 123.162C300.839 124.693 299.6 125.933 298.068 125.933Z" fill="#F0C37E"/>
<path d="M314.475 125.933C312.949 125.933 311.704 124.693 311.704 123.162C311.704 121.631 312.949 120.391 314.475 120.391C316.006 120.391 317.251 121.631 317.251 123.162C317.251 124.693 316.006 125.933 314.475 125.933Z" fill="#F0C37E"/>
<path d="M330.886 125.933C329.355 125.933 328.115 124.693 328.115 123.162C328.115 121.631 329.355 120.391 330.886 120.391C332.417 120.391 333.657 121.631 333.657 123.162C333.657 124.693 332.417 125.933 330.886 125.933Z" fill="#F0C37E"/>
<path d="M347.292 125.933C345.766 125.933 344.521 124.693 344.521 123.162C344.521 121.631 345.766 120.391 347.292 120.391C348.824 120.391 350.063 121.631 350.063 123.162C350.063 124.693 348.824 125.933 347.292 125.933Z" fill="#F0C37E"/>
<path d="M363.704 125.933C362.173 125.933 360.933 124.693 360.933 123.162C360.933 121.631 362.173 120.391 363.704 120.391C365.235 120.391 366.475 121.631 366.475 123.162C366.475 124.693 365.235 125.933 363.704 125.933Z" fill="#F0C37E"/>
<path d="M298.068 110.621C296.751 110.621 295.646 109.704 295.365 108.475C295.6 107.584 295.865 106.704 296.162 105.839C296.662 105.365 297.329 105.079 298.068 105.079C299.6 105.079 300.839 106.318 300.839 107.85C300.839 109.381 299.6 110.621 298.068 110.621Z" fill="#F0C37E"/>
<path d="M314.475 110.621C312.949 110.621 311.704 109.381 311.704 107.85C311.704 106.318 312.949 105.079 314.475 105.079C316.006 105.079 317.251 106.318 317.251 107.85C317.251 109.381 316.006 110.621 314.475 110.621Z" fill="#F0C37E"/>
<path d="M330.886 110.621C329.355 110.621 328.115 109.381 328.115 107.85C328.115 106.318 329.355 105.079 330.886 105.079C332.417 105.079 333.657 106.318 333.657 107.85C333.657 109.381 332.417 110.621 330.886 110.621Z" fill="#F0C37E"/>
<path d="M347.292 110.621C345.766 110.621 344.521 109.381 344.521 107.85C344.521 106.318 345.766 105.079 347.292 105.079C348.824 105.079 350.063 106.318 350.063 107.85C350.063 109.381 348.824 110.621 347.292 110.621Z" fill="#F0C37E"/>
<path d="M363.704 110.621C362.173 110.621 360.933 109.381 360.933 107.85C360.933 106.318 362.173 105.079 363.704 105.079C365.235 105.079 366.475 106.318 366.475 107.85C366.475 109.381 365.235 110.621 363.704 110.621Z" fill="#F0C37E"/>
<path d="M380.11 110.621C378.579 110.621 377.339 109.381 377.339 107.85C377.339 106.318 378.579 105.079 380.11 105.079C381.256 105.079 382.235 105.772 382.662 106.756L380.97 110.485C380.699 110.574 380.412 110.621 380.11 110.621Z" fill="#F0C37E"/>
<path d="M314.475 95.3133C312.949 95.3133 311.704 94.0685 311.704 92.5424C311.704 91.0112 312.949 89.7664 314.475 89.7664C316.006 89.7664 317.251 91.0112 317.251 92.5424C317.251 94.0685 316.006 95.3133 314.475 95.3133Z" fill="#F0C37E"/>
<path d="M330.886 95.3133C330.329 95.3133 329.813 95.1466 329.381 94.8705L331.438 89.8237C332.704 90.0789 333.657 91.1987 333.657 92.5424C333.657 94.0685 332.417 95.3133 330.886 95.3133Z" fill="#F0C37E"/>
<path d="M329.381 94.8706C328.62 94.3758 328.115 93.5164 328.115 92.5424C328.115 91.0112 329.355 89.7664 330.886 89.7664C331.074 89.7664 331.261 89.7872 331.438 89.8237L329.381 94.8706Z" fill="#F0C37E"/>
<path d="M347.292 95.3133C345.766 95.3133 344.521 94.0685 344.521 92.5424C344.521 91.0112 345.766 89.7664 347.292 89.7664C348.824 89.7664 350.063 91.0112 350.063 92.5424C350.063 94.0685 348.824 95.3133 347.292 95.3133Z" fill="#F0C37E"/>
<path d="M363.704 95.3133C362.173 95.3133 360.933 94.0685 360.933 92.5424C360.933 91.0112 362.173 89.7664 363.704 89.7664C365.235 89.7664 366.475 91.0112 366.475 92.5424C366.475 94.0685 365.235 95.3133 363.704 95.3133Z" fill="#F0C37E"/>
<path d="M380.11 95.3133C378.579 95.3133 377.339 94.0685 377.339 92.5424C377.339 91.0112 378.579 89.7664 380.11 89.7664C381.641 89.7664 382.886 91.0112 382.886 92.5424C382.886 94.0685 381.641 95.3133 380.11 95.3133Z" fill="#F0C37E"/>
<path d="M330.886 80.0008C329.511 80.0008 328.365 79.0008 328.152 77.683L331.084 76.3341L333.647 77.0268C333.657 77.0945 333.657 77.1622 333.657 77.2299C333.657 78.7612 332.417 80.0008 330.886 80.0008Z" fill="#F0C37E"/>
<path d="M347.292 80.0008C345.766 80.0008 344.527 78.7612 344.521 77.2299H350.063C350.063 78.7612 348.824 80.0008 347.292 80.0008Z" fill="#F0C37E"/>
<path d="M363.704 80.0008C362.313 80.0008 361.162 78.9799 360.964 77.6414C361.647 77.7351 362.334 77.8445 363.006 77.9747C364.037 78.1726 365.053 78.4122 366.058 78.6935C365.569 79.4799 364.694 80.0008 363.704 80.0008Z" fill="#F0C37E"/>
<path d="M367.839 139.464L384.188 103.386C384.818 101.996 386.032 100.959 387.501 100.558L453.985 82.3185C455.11 82.0112 457.407 84.7872 456.891 85.8341L432.699 130.74C431.923 132.318 430.574 133.548 428.933 134.167L366.407 157.876L367.839 139.464Z" fill="#2A3551"/>
<path d="M369.032 142.131L385.381 106.048C386.006 104.662 387.225 103.626 388.693 103.22L455.178 84.9851C456.298 84.6778 457.261 85.8393 456.745 86.8862L433.891 133.407C433.115 134.985 431.771 136.209 430.126 136.834L367.6 160.542L369.032 142.131Z" fill="#364380"/>
<path d="M385.178 150.626C385.178 150.626 386.522 153.766 379.912 159.845C373.287 165.923 363.272 161.985 363.272 161.985L336.704 182.141C332.949 184.959 328.454 186.402 323.944 186.402C320.579 186.402 317.22 185.615 314.121 184.006C308.438 181.048 304.391 175.683 303.1 169.407L302.917 168.501L301.183 160.068L315.329 151.777L326.615 145.152L326.996 147.251L328.761 156.985L357.641 142.855C357.641 142.855 363.454 133.553 366.23 130.246C369.001 126.943 372.126 126.407 373.105 128.553C374.1 130.693 367.839 139.464 367.839 139.464C367.839 139.464 370.162 139.282 377.136 136.86C384.115 134.449 388.667 129.449 390.542 130.959C392.417 132.49 391.355 136.86 388.85 140.261C389.48 146.256 385.178 150.626 385.178 150.626Z" fill="#F0C9CF"/>
<path d="M326.996 147.251L302.917 168.501L301.183 160.068L315.329 151.777L326.615 145.152L326.996 147.251Z" fill="#D683A7"/>
<path d="M363.006 77.9747C361.902 84.2351 358.371 90.5685 348.886 91.5893C341.397 92.4174 336.167 90.1466 332.569 87.0528C330.944 85.6362 329.641 84.0528 328.636 82.5112C327.683 81.0841 326.97 79.683 326.449 78.4643L331.084 76.3341L334.407 77.2299H357.907L360.834 77.6258C361.563 77.7247 362.292 77.8341 363.006 77.9747Z" fill="white"/>
<path d="M349.6 87.3289C336.449 88.8028 331.084 76.3341 331.084 76.3341L333.777 75.1726C333.777 75.1726 334.225 64.7091 333.24 58.631L336.995 59.5997L355.501 64.3601C353.787 68.3653 354.235 73.9695 354.449 75.7612C354.49 76.1258 354.516 76.3341 354.516 76.3341L357.907 77.2299C357.907 77.2299 358.454 86.3497 349.6 87.3289Z" fill="#F0C9CF"/>
<path d="M354.449 75.7612C347.037 75.9331 337.626 73.3549 334.74 63.6726C334.084 61.4747 335.063 60.2143 336.995 59.5997L355.501 64.3601C353.787 68.3653 354.235 73.9695 354.449 75.7612Z" fill="#D683A7"/>
<path d="M330.11 52.0216L323.381 43.7508C319.902 39.4747 320.261 33.2508 324.209 29.4018C320.574 20.6935 325.709 10.8185 334.928 8.79242L341.798 7.282C343.022 7.01117 344.178 6.49034 345.188 5.75075L351.787 0.933045C353.381 -0.233622 355.527 -0.311747 357.204 0.72992C359.365 2.07367 360.121 4.86534 358.933 7.11013L356.907 10.9383C356.668 11.3966 357.183 11.8758 357.621 11.6049L369.558 4.15179C371.095 3.18825 373.105 3.47471 374.319 4.81846C375.496 6.12054 375.605 8.06846 374.584 9.49554L366.35 21.0372C366.069 21.4383 366.464 21.9695 366.933 21.8028L368.949 21.0893C371.011 20.3549 373.303 21.1674 374.449 23.032C375.548 24.8133 375.313 27.1049 373.881 28.631C369.949 32.8133 362.558 41.183 361.579 45.9435C360.235 52.4695 330.11 52.0216 330.11 52.0216Z" fill="#1F2251"/>
<path d="M362.542 39.1049C362.318 40.381 362.11 42.3133 362.11 45.131C362.11 46.9799 362.475 50.0476 362.516 53.3914C362.542 55.7299 362.417 58.2247 361.912 60.5633C360.735 66.0008 357.501 70.6206 349.334 70.6206C332.61 70.6206 330.917 54.0789 330.917 54.0789C330.917 54.0789 330.47 58.0581 326.714 56.1831C323.912 54.782 322.959 48.3914 326.126 46.881C327.99 45.9851 329.98 47.2039 331.308 48.3497C331.871 48.8289 332.725 48.381 332.652 47.6518L331.98 39.8497C336.548 41.2351 352.907 36.5841 359.339 30.2403C359.449 31.9487 360.626 33.8966 361.631 35.256C362.449 36.3601 362.782 37.7508 362.542 39.1049Z" fill="#F0C9CF"/>
<path d="M350.912 57.6153L352.402 56.7403C353.235 56.2508 353.714 55.3653 353.714 54.4487C353.714 54.0997 353.641 53.7403 353.495 53.4018L351.058 47.756C350.98 47.5789 350.777 47.5008 350.6 47.5737C350.423 47.6518 350.339 47.8549 350.417 48.0372L352.85 53.6778C352.959 53.9278 353.011 54.1935 353.011 54.4487C353.011 55.1258 352.662 55.7768 352.048 56.1362L350.558 57.0112C350.391 57.1101 350.339 57.3237 350.438 57.4903C350.532 57.657 350.745 57.7143 350.912 57.6153Z" fill="#C85E8B"/>
<path d="M345.36 50.5633C345.36 51.3028 344.881 51.907 344.298 51.907C343.709 51.907 343.235 51.3028 343.235 50.5633C343.235 49.8237 343.709 49.2247 344.298 49.2247C344.881 49.2247 345.36 49.8237 345.36 50.5633Z" fill="black"/>
<path d="M358.141 49.8028C358.141 50.5424 357.667 51.1466 357.079 51.1466C356.496 51.1466 356.016 50.5424 356.016 49.8028C356.016 49.0633 356.496 48.4643 357.079 48.4643C357.667 48.4643 358.141 49.0633 358.141 49.8028Z" fill="black"/>
<path d="M339.521 46.3706L339.532 46.3601C339.594 46.2716 339.975 45.7612 340.646 45.282C341.324 44.8081 342.271 44.3653 343.537 44.3653C344.136 44.3653 344.803 44.4591 345.553 44.7143C345.829 44.8081 346.126 44.657 346.219 44.381C346.313 44.1049 346.162 43.8081 345.886 43.7195C345.037 43.4331 344.251 43.3133 343.537 43.3133C341.917 43.3133 340.688 43.9278 339.881 44.5424C339.074 45.1518 338.673 45.7612 338.646 45.7924C338.49 46.0372 338.553 46.3601 338.798 46.5216C339.037 46.6831 339.365 46.6153 339.521 46.3706Z" fill="#1F2251"/>
<path d="M360.803 44.0424C360.761 43.9955 359.412 42.506 357.022 42.4955C355.933 42.4955 354.652 42.8185 353.245 43.7091C353.001 43.8601 352.928 44.183 353.084 44.433C353.235 44.6778 353.563 44.7508 353.808 44.5945C355.074 43.7976 356.141 43.5476 357.022 43.5476C357.985 43.5476 358.74 43.8497 359.256 44.157C359.516 44.3133 359.714 44.4643 359.844 44.5789L359.99 44.7091L360.027 44.7455L360.126 44.657L360.027 44.7455L360.126 44.657L360.027 44.7455C360.219 44.9591 360.553 44.9799 360.772 44.782C360.985 44.5893 361.001 44.256 360.803 44.0424Z" fill="#1F2251"/>
<path d="M345.72 60.5424L352.053 60.8393C352.053 60.8393 351.834 64.1205 348.647 63.9122C345.454 63.7039 345.72 60.5424 345.72 60.5424Z" fill="white"/>
<path d="M326.001 50.308C326.396 50.0633 326.761 49.9591 327.079 49.9591C327.542 49.9643 327.923 50.1622 328.23 50.5685C328.532 50.9747 328.735 51.5997 328.735 52.407C328.735 52.6205 328.719 52.8497 328.688 53.0945C328.662 53.2872 328.798 53.4591 328.99 53.4851C329.183 53.5112 329.36 53.3758 329.381 53.183C329.417 52.9122 329.433 52.6518 329.433 52.407C329.433 51.4851 329.204 50.7091 328.792 50.1518C328.381 49.5893 327.761 49.256 327.079 49.2612C326.61 49.2612 326.115 49.4122 325.631 49.7143C325.469 49.8133 325.417 50.032 325.516 50.1935C325.62 50.3549 325.834 50.407 326.001 50.308Z" fill="#C85E8B"/>
<path d="M344.777 56.8914C344.777 58.9643 343.094 60.6466 341.022 60.6466C338.949 60.6466 337.266 58.9643 337.266 56.8914C337.266 54.8185 338.949 53.1362 341.022 53.1362C343.094 53.1362 344.777 54.8185 344.777 56.8914Z" fill="#EAB7C0"/>
<path d="M362.516 53.3914C362.542 55.7299 362.417 58.2247 361.912 60.5633C361.678 60.6206 361.423 60.6518 361.173 60.6518C359.1 60.6518 357.417 58.9695 357.417 56.8966C357.417 54.8237 359.1 53.1414 361.173 53.1414C361.647 53.1414 362.095 53.2247 362.516 53.3914Z" fill="#EAB7C0"/>
<path d="M328.61 156.667L317.97 162.032C317.798 162.121 317.73 162.329 317.813 162.501C317.902 162.673 318.115 162.746 318.287 162.657L328.923 157.292C329.1 157.204 329.168 156.996 329.079 156.824C328.996 156.652 328.782 156.579 328.61 156.667Z" fill="#C85E8B"/>
<path d="M388.532 140.105C388.011 141.162 386.834 142.121 385.334 142.923C383.089 144.131 380.162 145.001 377.803 145.558C376.626 145.834 375.584 146.037 374.845 146.167C374.1 146.303 373.662 146.365 373.657 146.365C373.464 146.391 373.334 146.568 373.36 146.761C373.386 146.954 373.563 147.084 373.756 147.058C373.766 147.058 376.98 146.605 380.506 145.563C382.266 145.048 384.105 144.381 385.668 143.537C387.225 142.699 388.522 141.688 389.157 140.417C389.246 140.246 389.178 140.037 389.001 139.949C388.829 139.86 388.621 139.933 388.532 140.105Z" fill="#C85E8B"/>
<path d="M384.923 150.391C381.542 154.016 376.605 154.626 373.735 154.626C373.042 154.626 372.469 154.589 372.074 154.558C371.678 154.522 371.464 154.49 371.464 154.49C371.277 154.459 371.094 154.589 371.068 154.782C371.037 154.97 371.167 155.152 371.36 155.178C371.37 155.183 372.303 155.329 373.735 155.329C376.693 155.324 381.829 154.72 385.438 150.871C385.568 150.73 385.563 150.506 385.417 150.376C385.277 150.246 385.058 150.251 384.923 150.391Z" fill="#C85E8B"/>
<path d="M326.964 145.105L322.527 112.902C322.501 112.709 322.324 112.574 322.131 112.605C321.943 112.626 321.808 112.808 321.834 112.996L326.272 145.204C326.298 145.391 326.469 145.527 326.662 145.501C326.855 145.475 326.99 145.298 326.964 145.105Z" fill="#1F2251"/>
<path d="M381.053 170.48L348.657 197.792C348.511 197.917 348.49 198.136 348.615 198.287C348.74 198.433 348.959 198.454 349.11 198.329L381.501 171.016C381.652 170.891 381.667 170.673 381.542 170.522C381.417 170.376 381.199 170.355 381.053 170.48Z" fill="#1F2251"/>
<path d="M320.985 421.147L290.74 417.24C288.688 416.975 287.24 415.1 287.506 413.042L288.121 408.24C288.386 406.188 290.266 404.74 292.324 405.006L322.563 408.907C324.615 409.173 326.069 411.053 325.803 413.11L325.183 417.907C324.917 419.959 323.037 421.412 320.985 421.147Z" fill="#647BF4"/>
<path d="M291.683 405.334L323.11 409.391C323.298 409.417 323.475 409.277 323.501 409.089C323.527 408.897 323.391 408.72 323.199 408.693L291.772 404.636C291.579 404.615 291.407 404.751 291.381 404.938C291.355 405.131 291.49 405.308 291.683 405.334Z" fill="#1F2251"/>
<path d="M445.558 414.834L416.287 423.381C414.298 423.959 412.22 422.818 411.636 420.829L410.282 416.183C409.699 414.199 410.845 412.115 412.829 411.537L442.105 402.99C444.089 402.412 446.173 403.553 446.751 405.537L448.11 410.183C448.688 412.173 447.548 414.256 445.558 414.834Z" fill="#647BF4"/>
<path d="M412.376 412.094L442.792 403.214C442.98 403.157 443.084 402.964 443.032 402.777C442.975 402.594 442.782 402.485 442.6 402.542L412.178 411.423C411.996 411.475 411.886 411.667 411.944 411.855C411.996 412.042 412.188 412.147 412.376 412.094Z" fill="#1F2251"/>
<path d="M389.938 114.464C389.011 114.464 388.188 114.121 387.683 113.438C386.694 112.1 387.329 109.949 389.1 108.636C389.97 107.99 390.959 107.667 391.855 107.667C392.777 107.667 393.6 108.011 394.105 108.693C395.1 110.037 394.464 112.183 392.688 113.496C391.819 114.141 390.829 114.464 389.938 114.464ZM391.386 109.324C390.928 109.324 390.423 109.485 389.97 109.818C389.063 110.49 388.735 111.595 389.246 112.282C389.506 112.636 389.928 112.813 390.402 112.813C390.86 112.813 391.371 112.647 391.819 112.313C392.73 111.641 393.053 110.537 392.543 109.85C392.287 109.496 391.86 109.324 391.386 109.324Z" fill="#4454A0"/>
<path d="M390.402 112.813C389.928 112.813 389.506 112.636 389.246 112.282C388.735 111.595 389.063 110.49 389.97 109.818C390.423 109.485 390.928 109.324 391.386 109.324C391.86 109.324 392.287 109.496 392.542 109.85C393.053 110.537 392.73 111.641 391.818 112.313C391.371 112.647 390.86 112.813 390.402 112.813Z" fill="#5569B8"/>
<path d="M364.735 234.24L356.287 273.391C356.246 273.579 356.365 273.766 356.558 273.808C356.746 273.85 356.933 273.73 356.975 273.537L365.423 234.391C365.464 234.199 365.345 234.016 365.152 233.975C364.964 233.933 364.777 234.053 364.735 234.24Z" fill="#1F2251"/>
<path d="M478.954 127.334H478.068C478.381 127.251 478.673 127.266 478.954 127.334Z" fill="#364380"/>
<path d="M478.069 127.334L478.011 127.35V127.334H478.069Z" fill="#364380"/>
<path d="M544.553 375.277L542.407 436.725L548.844 447.808L564.402 441.73L568.511 380.824" fill="#F0C9CF"/>
<path d="M509.188 452.266L543.12 432.61L549.563 441.73H564.402L566.011 455.496H510.058C508.287 455.496 507.657 453.152 509.188 452.266Z" fill="#EBAF65"/>
<path d="M648.324 375.277L667.87 436.725L661.438 447.808L645.881 441.73L624.365 380.824" fill="#F0C9CF"/>
<path d="M701.089 452.266L667.157 432.61L660.719 441.73H645.881L644.271 455.496H700.225C701.995 455.496 702.626 453.152 701.089 452.266Z" fill="#EBAF65"/>
<path d="M546.464 173.074L538.417 404.985L570.246 407.318L582.402 262.298L630.324 411.756L658.574 402.876C658.574 402.876 620.308 245.131 616.022 222.605C611.73 200.074 613.876 188.266 607.079 172.532L546.464 173.074Z" fill="#292F69"/>
<path d="M571.907 17.3341C562.735 14.8289 555.761 28.2403 557.907 44.8706C560.053 61.4956 545.751 77.4122 547.355 84.2039C548.964 91.0008 580.792 100.48 602.074 100.298C623.35 100.121 629.964 90.8237 626.032 84.2039C622.1 77.5893 615.839 71.1466 616.376 51.2143C616.912 31.2768 603.074 -5.9107 571.907 17.3341Z" fill="#1F2251"/>
<path d="M528.047 112.277L516.245 138.74L498.006 95.9591C498.006 95.9591 495.683 81.3445 493.803 77.2299C491.928 73.1205 492.553 67.6674 490.053 66.8601C487.547 66.058 486.652 70.5268 486.652 74.3705C486.652 78.2143 486.027 81.881 486.027 81.881C486.027 81.881 475.568 72.7612 474.943 69.9018C474.313 67.0424 474.672 57.2924 472.35 56.0424C470.021 54.7924 467.433 57.6518 466.896 65.9695C466.36 74.282 483.079 98.5112 483.079 98.5112L495.324 157.876L529.657 164.131L550.042 130.693L528.047 112.277Z" fill="#F0C9CF"/>
<path d="M633.193 120.079L620.558 129.256L619.365 130.11L609.943 136.954L608.511 174.329L602.756 174.214L601.563 174.188L584.954 173.85L583.761 173.834L567.152 173.501L565.959 173.47L549.35 173.136L548.157 173.11L546.464 173.079C546.464 173.079 547.178 163.949 544.501 150.626C541.813 137.308 545.568 128.147 545.568 128.147L528.048 112.277L537.022 98.3289C539.772 94.0528 543.636 90.6362 548.157 88.4539C548.553 88.256 548.943 88.0737 549.35 87.907C550.652 87.3341 552.011 86.8705 553.397 86.5164L565.959 83.2976L566.647 83.1153L567.152 82.9903L571.407 81.881L583.761 81.9278H584.954L598.412 81.9643L601.563 83.6205L602.756 84.2508L602.782 84.2664L614.1 90.1883C616.006 91.183 617.772 92.3862 619.365 93.7872C619.777 94.1258 620.178 94.4903 620.558 94.8653C623.318 97.5424 625.516 100.808 626.959 104.449L633.193 120.079Z" fill="#647BF4"/>
<path d="M549.35 173.136L548.157 173.11V88.4539C548.553 88.256 548.943 88.0737 549.35 87.907V173.136Z" fill="#7D9AF7"/>
<path d="M567.152 173.501L565.959 173.47V83.2976L566.646 83.1153L567.152 82.9903V173.501Z" fill="#7D9AF7"/>
<path d="M584.954 173.85L583.761 173.834V81.9278H584.954V173.85Z" fill="#7D9AF7"/>
<path d="M602.756 174.214L601.563 174.188V83.6205L602.756 84.2508V174.214Z" fill="#7D9AF7"/>
<path d="M619.365 130.11V93.7872C619.777 94.1258 620.178 94.4903 620.558 94.8653V129.256L619.365 130.11Z" fill="#7D9AF7"/>
<path d="M602.782 84.2664C599.095 91.7976 589.35 96.1987 577.402 95.4122C567.376 94.7403 566.141 88.058 566.647 83.1153L571.407 81.881L598.412 81.9643L602.782 84.2664Z" fill="white"/>
<path d="M598.412 81.9643C598.412 81.9643 593.485 91.7976 580.876 91.7976C568.272 91.7976 571.407 81.881 571.407 81.881L574.98 80.7195L574.772 74.5737L574.449 65.6101L595.907 59.0789C595.459 59.9747 595.136 61.2664 594.928 62.7508C593.933 69.532 595.011 80.7195 595.011 80.7195L598.412 81.9643Z" fill="#F0C9CF"/>
<path d="M595.907 59.0789C595.459 59.9747 595.136 61.2664 594.928 62.7508L594.912 62.7768C588.891 74.8914 578.746 75.032 574.772 74.5737L574.449 65.6101L595.907 59.0789Z" fill="#D683A7"/>
<path d="M572.339 26.8185C574.313 37.3758 596.886 44.6778 598.49 45.8862C599.428 46.5893 599.73 48.2664 599.824 49.5372C599.844 49.8028 600.209 49.8601 600.303 49.6049C600.871 48.0476 602.011 45.8237 603.938 45.5945C606.923 45.2351 609.803 49.0008 608.105 53.5216C606.402 58.0424 599.579 55.6466 599.579 55.6466C599.579 55.6466 594.022 69.1778 581.246 69.5528C568.464 69.9226 565.647 59.0945 566.615 52.4487C567.584 45.8028 567.49 42.4955 566.928 38.5737C566.365 34.657 571.266 31.8914 572.339 26.8185Z" fill="#F0C9CF"/>
<path d="M604.834 47.8549C604.506 47.9539 604.235 48.183 603.99 48.4747C603.261 49.3393 602.699 50.8341 602.688 52.058C602.688 52.3601 602.725 52.6466 602.813 52.9122C602.881 53.0945 603.079 53.1882 603.261 53.1257C603.443 53.0632 603.542 52.8653 603.475 52.6778C603.417 52.5164 603.386 52.3028 603.386 52.058C603.386 51.3966 603.621 50.5268 603.959 49.8185C604.131 49.4695 604.329 49.1518 604.522 48.9278C604.714 48.6935 604.912 48.558 605.032 48.5268C605.219 48.4747 605.324 48.2768 605.272 48.0945C605.214 47.907 605.022 47.7976 604.834 47.8549Z" fill="#C85E8B"/>
<path d="M579.496 56.3185L578.001 55.4435C577.391 55.0841 577.042 54.4331 577.042 53.7612C577.042 53.5008 577.089 53.2351 577.199 52.9851L579.636 47.3445C579.714 47.1674 579.631 46.9591 579.454 46.8862C579.277 46.8081 579.069 46.8862 578.996 47.0685L576.558 52.7091C576.407 53.0476 576.339 53.407 576.339 53.7612C576.339 54.6726 576.813 55.5581 577.647 56.0476L579.136 56.9226C579.303 57.0216 579.522 56.9643 579.615 56.7976C579.714 56.631 579.662 56.4174 579.496 56.3185Z" fill="#C85E8B"/>
<path d="M584.693 49.8706C584.693 50.6153 585.167 51.2143 585.756 51.2143C586.344 51.2143 586.818 50.6153 586.818 49.8706C586.818 49.131 586.344 48.532 585.756 48.532C585.167 48.532 584.693 49.131 584.693 49.8706Z" fill="black"/>
<path d="M571.907 49.1101C571.907 49.8549 572.386 50.4539 572.969 50.4539C573.558 50.4539 574.032 49.8549 574.032 49.1101C574.032 48.3705 573.558 47.7716 572.969 47.7716C572.386 47.7716 571.907 48.3705 571.907 49.1101Z" fill="black"/>
<path d="M590.657 42.282C590.615 42.2403 589.053 40.506 586.381 40.4956C585.428 40.4903 584.35 40.7247 583.188 41.3185C582.933 41.4487 582.829 41.7664 582.959 42.0268C583.094 42.282 583.407 42.3862 583.667 42.2508C584.693 41.7299 585.594 41.5424 586.381 41.5424C587.475 41.5424 588.355 41.907 588.964 42.2768C589.266 42.4591 589.501 42.6466 589.657 42.7768L589.834 42.9383L589.87 42.9799L589.881 42.9851C590.074 43.2039 590.407 43.2195 590.62 43.0216C590.834 42.8289 590.855 42.4956 590.657 42.282Z" fill="#1F2251"/>
<path d="M569.917 42.8653L569.813 42.7716L569.912 42.8653H569.917L569.813 42.7716L569.912 42.8653C569.943 42.8341 571.063 41.657 572.917 41.6674C573.798 41.6674 574.871 41.9226 576.136 42.7143C576.381 42.8705 576.704 42.7976 576.86 42.5528C577.016 42.308 576.943 41.9799 576.693 41.8289C575.292 40.9383 574.006 40.6153 572.917 40.6153C570.532 40.6258 569.183 42.1101 569.136 42.157C568.943 42.3758 568.959 42.7039 569.173 42.9018C569.391 43.0945 569.72 43.0789 569.917 42.8653Z" fill="#1F2251"/>
<path d="M576.522 49.4591H575.996C575.99 52.183 573.787 54.3862 571.063 54.3914C568.339 54.3862 566.131 52.183 566.131 49.4591C566.131 46.7351 568.339 44.532 571.063 44.5216C573.787 44.532 575.99 46.7351 575.996 49.4591H577.048C577.048 46.1518 574.365 43.4747 571.063 43.4747C567.756 43.4747 565.079 46.1518 565.079 49.4591C565.079 52.7612 567.756 55.4435 571.063 55.4435C574.365 55.4435 577.048 52.7612 577.048 49.4591H576.522Z" fill="#647BF4"/>
<path d="M591.662 49.4591H591.136C591.131 52.183 588.928 54.3862 586.204 54.3914C583.48 54.3862 581.277 52.183 581.272 49.4591C581.277 46.7351 583.48 44.532 586.204 44.5216C588.928 44.532 591.131 46.7351 591.136 49.4591H592.188C592.188 46.1518 589.506 43.4747 586.204 43.4747C582.897 43.4747 580.219 46.1518 580.219 49.4591C580.219 52.7612 582.897 55.4435 586.204 55.4435C589.506 55.4435 592.188 52.7612 592.188 49.4591H591.662Z" fill="#647BF4"/>
<path d="M576.73 48.5685L576.735 48.5633C576.808 48.4903 577.725 47.7143 578.735 47.7299C579.277 47.7351 579.865 47.907 580.527 48.5633L581.271 47.8185C580.449 46.9903 579.537 46.6726 578.735 46.6778C577.131 46.6987 576.048 47.782 576.006 47.8133L576.73 48.5685Z" fill="#647BF4"/>
<path d="M580.766 61.8237C580.792 61.8289 581.839 62.2612 583.287 62.2664C584.522 62.2664 586.068 61.9435 587.459 60.7508C587.605 60.6258 587.626 60.4018 587.501 60.256C587.376 60.1101 587.152 60.0945 587.006 60.2195C585.761 61.2768 584.407 61.5633 583.287 61.5633C582.631 61.5633 582.063 61.4643 581.657 61.3653C581.459 61.3185 581.298 61.2664 581.188 61.2299L581.068 61.1883L581.032 61.1726C580.85 61.0997 580.647 61.1831 580.574 61.3653C580.501 61.5424 580.584 61.7508 580.766 61.8237Z" fill="#C85E8B"/>
<path d="M542.246 172.532H489.277C488.402 172.553 487.595 172.016 487.345 171.131L475.98 129.912C475.704 128.876 476.303 127.813 477.345 127.532L478.001 127.35H478.011L478.069 127.334H531.058L542.246 172.532Z" fill="#99A3CA"/>
<path d="M510.678 151.964C510.678 154.235 508.839 156.079 506.568 156.079C504.298 156.079 502.454 154.235 502.454 151.964C502.454 149.693 504.298 147.85 506.568 147.85C508.839 147.85 510.678 149.693 510.678 151.964Z" fill="#E6E9FC"/>
<path d="M542.246 172.537H584.292C585.355 172.537 586.22 171.673 586.22 170.61V169.902C586.22 168.839 585.355 167.975 584.292 167.975H542.246C541.183 167.975 540.324 168.839 540.324 169.902V170.61C540.324 171.673 541.183 172.537 542.246 172.537Z" fill="#7988B8"/>
<path d="M529.022 129.897L540.199 170.433C540.48 171.454 541.537 172.058 542.563 171.777L543.251 171.584C544.272 171.303 544.876 170.246 544.595 169.22L533.417 128.683C533.136 127.662 532.079 127.058 531.058 127.339L530.365 127.532C529.345 127.813 528.74 128.871 529.022 129.897Z" fill="#7988B8"/>
<path d="M652.298 184.339C652.298 189.511 650.027 194.511 645.907 197.912C639.86 202.897 631.246 203.266 624.787 198.824L595.334 178.558C595.334 178.558 579.308 182.074 572.095 181.412C564.881 180.756 557.194 176.943 557.136 175.459C557.069 173.959 586.157 170.923 584.787 169.73C583.412 168.542 570.428 168.428 570.246 165.626C570.063 162.829 573.345 161.876 578.761 161.511C584.199 161.147 591.105 163.891 591.105 163.891L620.584 167.98L612.209 143.553L609.944 136.954L633.194 120.079L634.704 124.98L651.511 179.157C652.048 180.865 652.298 182.615 652.298 184.339Z" fill="#F0C9CF"/>
<path d="M633.193 120.079L634.704 124.98L612.209 143.553L609.943 136.954L633.193 120.079Z" fill="#D683A7"/>
<path d="M620.532 168.324L633.136 170.022C633.329 170.048 633.506 169.912 633.532 169.719C633.558 169.532 633.423 169.355 633.23 169.329L620.626 167.631C620.433 167.605 620.256 167.74 620.23 167.928C620.209 168.121 620.339 168.298 620.532 168.324Z" fill="#C85E8B"/>
<path d="M550.735 170.256C550.735 170.641 550.423 170.949 550.042 170.949C549.657 170.949 549.344 170.641 549.344 170.256C549.344 169.876 549.657 169.563 550.042 169.563C550.423 169.563 550.735 169.876 550.735 170.256Z" fill="#1F2251"/>
<path d="M553.548 170.256C553.548 170.641 553.235 170.949 552.85 170.949C552.469 170.949 552.162 170.641 552.162 170.256C552.162 169.876 552.469 169.563 552.85 169.563C553.235 169.563 553.548 169.876 553.548 170.256Z" fill="#1F2251"/>
<path d="M569.277 415.735L538.798 414.704C536.73 414.631 535.11 412.897 535.178 410.829L535.344 405.996C535.412 403.923 537.147 402.303 539.214 402.376L569.693 403.402C571.761 403.475 573.381 405.209 573.313 407.277L573.147 412.115C573.079 414.183 571.344 415.808 569.277 415.735Z" fill="#99A3CA"/>
<path d="M660.891 408.85L631.678 417.6C629.693 418.193 627.605 417.068 627.011 415.089L625.621 410.449C625.027 408.464 626.157 406.376 628.136 405.782L657.35 397.032C659.334 396.438 661.423 397.563 662.016 399.548L663.402 404.183C664.001 406.167 662.876 408.256 660.891 408.85Z" fill="#99A3CA"/>
<path d="M572.891 232.121L587.652 279.813C587.709 279.996 587.907 280.1 588.089 280.042C588.277 279.985 588.381 279.787 588.324 279.605L573.558 231.917C573.506 231.73 573.308 231.626 573.12 231.683C572.938 231.74 572.834 231.938 572.891 232.121Z" fill="#1F2251"/>
<path d="M549.11 149.813C557.1 157.167 571.006 158.209 571.037 158.225C571.23 158.235 571.397 158.095 571.412 157.902C571.428 157.709 571.282 157.542 571.089 157.522C571.089 157.522 570.881 157.506 570.49 157.464C567.756 157.173 556.324 155.537 549.584 149.298C549.443 149.167 549.219 149.178 549.089 149.318C548.959 149.459 548.969 149.683 549.11 149.813Z" fill="#1F2251"/>
<path d="M610.24 136.777L600.23 119.902C600.131 119.735 599.917 119.678 599.751 119.777C599.584 119.876 599.527 120.089 599.626 120.256L609.641 137.136C609.74 137.303 609.954 137.355 610.121 137.256C610.287 137.157 610.339 136.943 610.24 136.777Z" fill="#1F2251"/>
<path d="M545.881 128.303C550.214 119.678 551.079 108.574 551.079 108.553C551.1 108.36 550.954 108.188 550.761 108.173C550.568 108.157 550.397 108.303 550.386 108.496C550.386 108.496 550.329 109.178 550.183 110.345C549.74 113.845 548.443 121.652 545.256 127.99C545.173 128.162 545.24 128.371 545.412 128.459C545.584 128.548 545.798 128.475 545.881 128.303Z" fill="#1F2251"/>
<path d="M28.2611 456.897H728.464C729.24 456.897 729.865 456.272 729.865 455.496C729.865 454.725 729.24 454.1 728.464 454.1H28.2611C27.4851 454.1 26.8601 454.725 26.8601 455.496C26.8601 456.272 27.4851 456.897 28.2611 456.897Z" fill="#97A2D4"/>
<path d="M530.334 0.00075531V56.2872L516.183 42.1518H461.969V0.00075531H530.334Z" fill="white"/>
<path d="M480.407 12.0789H511.896C512.266 12.0789 512.563 11.782 512.563 11.4122C512.563 11.0424 512.266 10.7456 511.896 10.7456H480.407C480.037 10.7456 479.74 11.0424 479.74 11.4122C479.74 11.782 480.037 12.0789 480.407 12.0789Z" fill="#647BF4"/>
<path d="M511.897 18.5476H485.621C485.251 18.5476 484.954 18.2508 484.954 17.881C484.954 17.5112 485.251 17.2143 485.621 17.2143H511.897C512.266 17.2143 512.563 17.5112 512.563 17.881C512.563 18.2508 512.266 18.5476 511.897 18.5476Z" fill="#D8DEFC"/>
<path d="M511.896 25.0164H480.407C480.037 25.0164 479.74 24.7195 479.74 24.3497C479.74 23.9799 480.037 23.683 480.407 23.683H511.896C512.266 23.683 512.563 23.9799 512.563 24.3497C512.563 24.7195 512.266 25.0164 511.896 25.0164Z" fill="#D8DEFC"/>
<path d="M511.897 31.4851H489.819C489.449 31.4851 489.152 31.183 489.152 30.8185C489.152 30.4487 489.449 30.1518 489.819 30.1518H511.897C512.266 30.1518 512.563 30.4487 512.563 30.8185C512.563 31.183 512.266 31.4851 511.897 31.4851Z" fill="#D8DEFC"/>
<path d="M214.225 32.7039V88.9903L228.376 74.8549H282.589V32.7039H214.225Z" fill="white"/>
<path d="M264.152 43.4487H232.662C232.298 43.4487 231.996 43.7455 231.996 44.1153C231.996 44.4851 232.298 44.782 232.662 44.782H264.152C264.522 44.782 264.819 44.4851 264.819 44.1153C264.819 43.7455 264.522 43.4487 264.152 43.4487Z" fill="#EBAF65"/>
<path d="M258.938 51.2508H232.662C232.298 51.2508 231.996 50.9539 231.996 50.5841C231.996 50.2143 232.298 49.9174 232.662 49.9174H258.938C259.308 49.9174 259.605 50.2143 259.605 50.5841C259.605 50.9539 259.308 51.2508 258.938 51.2508Z" fill="#D8DEFC"/>
<path d="M264.152 57.7195H232.662C232.298 57.7195 231.996 57.4226 231.996 57.0528C231.996 56.683 232.298 56.3862 232.662 56.3862H264.152C264.522 56.3862 264.819 56.683 264.819 57.0528C264.819 57.4226 264.522 57.7195 264.152 57.7195Z" fill="#D8DEFC"/>
<path d="M254.74 64.1883H232.662C232.298 64.1883 231.996 63.8862 231.996 63.5216C231.996 63.1518 232.298 62.8549 232.662 62.8549H254.74C255.11 62.8549 255.407 63.1518 255.407 63.5216C255.407 63.8862 255.11 64.1883 254.74 64.1883Z" fill="#D8DEFC"/>
</svg>
