<svg width="828" height="736" viewBox="0 0 828 736" fill="none" xmlns="http://www.w3.org/2000/svg">
<path d="M725.681 630.309C708.836 646.082 692.905 656.253 680.309 664.289C532.295 758.757 357.156 731.219 319.935 724.496C264.969 714.564 158.721 695.37 81.9061 615.019C-34.3083 493.455 -16.2117 301.936 73.9316 175.51C90.4204 152.385 177.519 24.0353 354.544 3.45276C461.68 -9.00372 586.561 16.1189 677.003 83.5128C866.84 224.985 853.325 510.78 725.681 630.309Z" fill="url(#paint0_linear_6_994)"/>
<path d="M15.0665 249.144C14.2581 248.814 13.6943 248.09 13.6909 247.264C13.6789 244.534 13.7318 241.756 13.8481 239.011C13.8963 237.885 14.9783 237.021 16.2662 237.082C19.3892 237.214 18.3255 239.929 18.357 247.321C18.363 248.45 17.3219 249.356 16.0327 249.337C15.6883 249.334 15.3615 249.265 15.0665 249.144Z" fill="#91B3FA"/>
<path d="M357.226 78.7141C341.973 70.9291 338.841 71.4345 340.34 68.6397C341.294 66.8656 343.723 67.7031 343.442 67.6981C348.897 70.0074 354.307 72.5297 359.522 75.1908C360.644 75.7607 361.039 77.0144 360.405 77.9906C359.8 78.9173 358.421 79.3088 357.226 78.7141ZM295.885 54.8387C296.186 53.7435 297.444 53.0845 298.695 53.3669C304.527 54.6702 310.383 56.1915 316.103 57.8913C319.04 58.7634 317.608 62.6337 314.674 61.7615C309.07 60.0965 303.329 58.6049 297.618 57.3264C296.349 57.0389 295.59 55.919 295.885 54.8387ZM395.091 102.842C381.886 92.4854 378.736 92.4407 380.855 89.9878C381.626 89.0958 383.087 88.9372 384.12 89.6261C388.928 92.8471 393.653 96.2763 398.169 99.8194C400.486 101.633 397.416 104.666 395.091 102.842ZM249.326 49.1845C249.361 48.0547 250.435 47.1825 251.725 47.2321C257.717 47.4699 263.785 47.9209 269.759 48.57C272.835 48.912 272.324 52.9606 269.263 52.6286C263.41 51.9893 257.466 51.5532 251.595 51.3203C250.308 51.2708 249.291 50.3144 249.326 49.1845ZM203.944 53.5107C203.265 53.2331 202.743 52.6781 202.601 51.9893C202.374 50.8743 203.218 49.8238 204.484 49.6404C210.387 48.798 216.408 48.1538 222.379 47.7177C223.66 47.6235 224.805 48.461 224.932 49.5859C225.061 50.7108 224.126 51.7019 222.845 51.796C216.995 52.2222 211.095 52.8565 205.313 53.6791C204.832 53.7485 204.357 53.6791 203.944 53.5107ZM158.883 64.1996C158.352 63.9816 157.91 63.595 157.676 63.0796C157.195 62.0241 157.774 60.8447 158.97 60.4384C164.544 58.5603 170.27 56.8506 175.987 55.364C177.218 55.0419 178.526 55.6613 178.912 56.7416C179.299 57.8269 178.617 58.9617 177.389 59.2838C171.785 60.7456 166.174 62.4156 160.711 64.259C160.098 64.4671 159.441 64.4275 158.883 64.1996ZM116.387 81.9599C115.673 81.0085 115.965 79.7448 117.039 79.1353C122.042 76.3008 127.235 73.605 132.476 71.1223C135.174 69.8537 137.445 73.4514 134.749 74.7299C129.613 77.1631 124.523 79.7994 119.621 82.5794C118.55 83.1889 117.101 82.9114 116.387 81.9599ZM80.4674 107.867C79.5504 107.059 79.5409 105.761 80.4473 104.973C84.6646 101.296 89.1075 97.7233 93.6519 94.3437C95.9889 92.6092 99.0402 95.751 96.7054 97.4854C92.253 100.791 87.8992 104.294 83.7665 107.897C82.8613 108.69 81.3816 108.675 80.4674 107.867ZM50.7908 136.916C54.042 132.55 57.5357 128.239 61.1758 124.111C63.0544 121.985 66.7547 124.527 64.8873 126.648C61.3207 130.692 57.8972 134.914 54.7123 139.191C53.0365 141.445 49.1189 139.161 50.7908 136.916ZM29.3237 173.596C31.4987 168.695 33.9338 163.785 36.4815 159.161C37.8458 156.673 42.0035 158.606 40.6898 160.99C38.155 165.598 35.8062 170.341 33.6775 175.137C33.2135 176.183 31.8619 176.689 30.6602 176.262C29.4452 175.831 28.8647 174.637 29.3237 173.596ZM16.8128 213.458C17.7977 208.285 19.0317 203.081 20.4785 197.997C20.79 196.907 22.0546 196.258 23.3053 196.55C26.7098 197.363 24.3209 198.953 21.4161 214.201C21.2044 215.311 20.0028 216.045 18.7314 215.842C17.4428 215.629 16.6033 214.553 16.8128 213.458Z" fill="#91B3FA"/>
<path d="M421.513 127.326C416.564 121.901 413.379 119.969 415.76 118.173C416.726 117.44 418.201 117.54 419.051 118.404C424.422 123.829 427.159 126.027 424.793 127.674C424.081 128.167 422.321 128.208 421.513 127.326Z" fill="#91B3FA"/>
<path d="M472.021 279.748C471.113 279.373 470.534 278.519 470.664 277.611C471.04 274.945 471.356 272.243 471.603 269.576C471.709 268.449 472.835 267.631 474.123 267.743C475.403 267.858 476.363 268.856 476.253 269.98C476.002 272.7 475.678 275.457 475.298 278.18C475.14 279.297 473.973 280.079 472.697 279.921C472.458 279.892 472.231 279.831 472.021 279.748Z" fill="#91B3FA"/>
<path d="M460.364 322.616C459.267 322.168 458.714 321.05 459.13 320.047C461.264 314.83 463.165 309.485 464.781 304.174C465.112 303.086 466.389 302.456 467.638 302.764C468.884 303.08 469.624 304.201 469.292 305.289C467.642 310.712 465.703 316.163 463.523 321.487C463.089 322.545 461.755 323.077 460.543 322.68C460.479 322.66 460.421 322.64 460.364 322.616ZM438.05 361.939C434.983 360.204 438.069 359.377 446.784 344.755C448.198 342.386 452.355 344.315 450.933 346.697C447.957 351.69 444.703 356.618 441.27 361.35C440.573 362.309 439.11 362.553 438.05 361.939ZM406.161 395.779C403.596 393.494 406.847 393.274 419.044 380.76C421.029 378.723 424.603 381.408 422.614 383.452C418.453 387.719 414.026 391.884 409.461 395.823C408.554 396.606 407.079 396.592 406.161 395.779ZM367.458 423.287C367.054 423.121 366.7 422.856 366.449 422.504C365.759 421.538 366.079 420.28 367.169 419.694C372.515 416.803 377.781 413.671 382.826 410.39C383.851 409.723 385.314 409.919 386.091 410.834C386.876 411.743 386.674 413.024 385.649 413.688C380.501 417.037 375.125 420.233 369.668 423.185C368.979 423.555 368.152 423.572 367.458 423.287ZM322.137 442.081C321.581 441.857 321.124 441.44 320.899 440.895C320.464 439.827 321.093 438.664 322.305 438.298C328.26 436.505 334.197 434.468 339.955 432.242C341.128 431.791 342.508 432.262 343.049 433.296C343.586 434.329 343.072 435.536 341.902 435.99C336.022 438.261 329.964 440.339 323.886 442.169C323.295 442.349 322.671 442.301 322.137 442.081ZM273.078 451.7C272.361 451.405 271.828 450.805 271.718 450.07C271.557 448.948 272.461 447.938 273.737 447.812C280.013 447.212 286.338 446.368 292.534 445.301C293.795 445.087 295.034 445.809 295.304 446.918C295.571 448.026 294.767 449.1 293.509 449.314C287.184 450.405 280.729 451.266 274.328 451.88C273.882 451.924 273.455 451.852 273.078 451.7ZM222.628 451.608C221.742 451.246 221.167 450.419 221.264 449.527C221.388 448.405 222.528 447.599 223.811 447.728C230.122 448.351 236.526 448.751 242.846 448.907C244.138 448.941 245.168 449.88 245.154 451.009C245.142 452.137 244.085 453.029 242.798 452.995C236.346 452.835 229.809 452.429 223.366 451.791C223.103 451.764 222.855 451.7 222.628 451.608ZM100.972 406.601C95.9226 402.995 90.9767 399.158 86.2742 395.192C85.3384 394.399 85.2965 393.108 86.182 392.298C88.6779 390.024 89.0753 392.881 103.881 403.445C104.889 404.164 105.055 405.452 104.252 406.326C103.448 407.194 101.982 407.316 100.972 406.601ZM171.968 439.275C173.096 436.272 174.946 438.736 193.263 442.82C194.521 443.094 195.291 444.213 194.996 445.308C194.698 446.402 193.441 447.063 192.186 446.782C185.92 445.386 179.619 443.735 173.462 441.874C172.228 441.498 171.57 440.335 171.968 439.275ZM144.146 431.062C138.325 428.503 132.556 425.7 127 422.728C125.891 422.134 125.525 420.874 126.183 419.914C128.037 417.206 129.147 419.925 146.18 427.412C147.341 427.924 147.826 429.154 147.263 430.16C146.282 431.923 143.866 431.052 144.146 431.062Z" fill="#91B3FA"/>
<path d="M64.7481 374.392C59.6585 368.752 57.0483 366.451 59.4988 364.907C62.0487 363.299 63.1799 366.113 68.3895 371.889C69.1961 372.782 69.033 374.067 68.0277 374.757C67.0226 375.448 65.5541 375.285 64.7481 374.392Z" fill="#91B3FA"/>
<path d="M94.326 324.49L127.734 322.929C136.984 334.118 148.311 344.131 161.479 352.444C160.511 380.928 158.173 382.866 161.506 384.092L198.772 397.805C199.861 398.207 201.109 397.963 201.877 397.196L223.815 375.38C239.723 377.768 255.67 377.791 271.08 375.673L293.532 397.789C294.32 398.564 295.574 398.826 296.652 398.438L333.613 385.208C334.694 384.822 335.361 383.869 335.278 382.842L332.914 353.536C345.525 345.623 356.753 335.865 366.012 324.467L399.442 326.465C400.612 326.534 401.694 325.944 402.133 324.996L417.13 292.572C417.569 291.624 417.271 290.528 416.383 289.84L391.105 270.231C393.55 256.328 393.299 242.351 390.614 228.811C414.435 209.509 417.553 209.685 416.153 206.79C400.08 175.031 401.344 172.493 397.682 172.665L364.273 174.227C355.023 163.033 343.695 153.019 330.529 144.707C331.497 116.241 333.838 114.285 330.502 113.058C293.213 100.001 292.487 97.6082 290.129 99.9547L268.193 121.771C252.285 119.387 236.335 119.359 220.928 121.478C198.763 100.526 198.689 97.5199 195.354 98.7141C159.042 112.38 156.475 111.144 156.73 114.308L159.094 143.619C146.481 151.532 135.254 161.286 125.996 172.684C94.0423 171.36 91.2454 169.194 89.8768 172.159C75.685 204.472 72.8913 205.192 75.625 207.315L100.903 226.92C98.457 240.827 98.7062 254.804 101.393 268.344C77.656 287.577 74.4522 287.451 75.8553 290.365C91.9293 322.12 90.6677 324.662 94.326 324.49Z" fill="#91B3FA"/>
<path d="M250.344 220.718C232.974 218.374 216.555 228.692 214.126 244.289C211.729 259.654 224.081 274.084 241.66 276.443C259.236 278.811 275.484 268.236 277.878 252.871C280.277 237.483 267.89 223.073 250.344 220.718ZM241.185 279.477L241.209 279.485L241.185 279.477ZM207.19 243.354C210.106 224.648 229.89 211.769 251.291 214.653C272.689 217.537 287.73 235.096 284.814 253.807C281.898 272.513 262.117 285.388 240.713 282.508C219.309 279.627 204.274 262.057 207.19 243.354Z" fill="#BDD0FB"/>
<path d="M205.477 327.837C200.197 325.675 195.132 323.128 190.374 320.23C188.942 319.359 188.455 317.74 189.14 316.414C189.223 316.256 189.32 316.107 189.435 315.954C190.518 314.571 192.7 314.239 194.296 315.21C199.769 318.541 205.683 321.377 211.87 323.657C258.474 340.805 311.485 322.668 331.933 283.195C332.456 282.193 332.957 281.169 333.435 280.132C352.791 238.291 329.362 190.389 281.649 172.821C234 155.288 179.409 174.624 160.081 216.347C148.593 241.184 155.507 258.774 154.186 261.321C152.759 264.078 148.078 263.448 147.537 260.446C144.572 244.033 146.903 226.684 155.203 210.661C191.017 141.533 304.995 144.36 339.158 215.156C349.674 236.943 349.949 260.87 339.929 282.521C339.412 283.642 338.869 284.749 338.303 285.848C327.919 305.892 309.526 321.425 286.12 329.806C261.44 338.643 234.142 338.463 209.254 329.307C207.986 328.839 206.722 328.349 205.477 327.837Z" fill="#BDD0FB"/>
<path d="M496.372 197.923C502.019 203.845 508.769 209.009 516.462 213.129L516.839 229.743C516.877 231.582 518.651 230.869 539.238 237.135C541.147 237.678 540.934 236.096 552.153 223.37C561.107 224.02 569.974 223.341 578.442 221.468L591.925 232.985C593.42 234.266 594.102 232.645 613.641 224.122C614.225 223.855 614.552 223.292 614.46 222.715L611.83 206.257C618.481 201.233 624.287 195.23 628.925 188.386C646.756 187.736 648.399 188.833 649.026 187.11C655.47 168.206 656.982 167.691 655.366 166.618L640.432 156.64C641.163 148.68 640.399 140.788 638.299 133.256L651.247 121.268C652.676 119.938 650.859 119.326 641.278 101.951C640.372 100.369 639.341 101.606 621.193 103.562C615.551 97.641 608.801 92.4769 601.102 88.3563L600.731 71.7429C600.688 69.8986 598.92 70.6169 578.327 64.3511C576.434 63.8075 576.69 65.3218 565.417 78.1155C556.463 77.4651 547.597 78.1446 539.123 80.0181L525.646 68.5008C525.171 68.098 524.462 68.0058 523.883 68.2679L503.929 77.3632C503.345 77.6253 503.012 78.1932 503.105 78.7707L505.741 95.2289C499.084 100.252 493.284 106.256 488.646 113.099C470.809 113.75 469.166 112.653 468.544 114.381C462.1 133.27 460.589 133.79 462.204 134.867L477.138 144.846C476.401 152.806 477.171 160.692 479.272 168.23C467.175 179.907 465.134 180.169 466.067 181.79L476.287 199.535C477.204 201.127 478.322 199.87 496.372 197.923Z" fill="#91B3FA"/>
<path d="M542.398 149.793C541.817 157.834 548.694 164.797 557.724 165.318C572.233 166.15 580.752 150.857 571.122 141.103C561.537 131.397 543.344 136.807 542.398 149.793ZM557.498 168.412L557.518 168.421L557.498 168.412ZM535.441 149.397C536.281 137.92 547.393 129.234 560.296 129.977C573.194 130.721 582.965 140.609 582.129 152.086C581.293 163.537 570.146 172.245 557.273 171.506C544.4 170.763 534.61 160.848 535.441 149.397Z" fill="#BDD0FB"/>
<path d="M441.369 181.87C440.472 179.196 439.679 176.446 439.018 173.709C438.749 172.593 439.547 171.493 440.802 171.253C443.96 170.649 443.511 173.785 445.824 180.686C446.192 181.782 445.489 182.936 444.262 183.26C443.04 183.587 441.742 182.97 441.369 181.87Z" fill="#91B3FA"/>
<path d="M570.095 44.2747C570.241 43.1431 571.396 42.3255 572.668 42.4551C579.018 43.0932 585.345 44.18 591.471 45.6806C594.43 46.3935 593.209 50.3917 590.238 49.6638C584.342 48.2231 578.261 47.1762 572.147 46.563C570.841 46.4284 569.961 45.3865 570.095 44.2747ZM522.636 50.3568C522.053 50.1224 521.582 49.6738 521.386 49.0855C521.005 47.9937 521.694 46.8372 522.922 46.5032C529.014 44.8431 535.302 43.6017 541.618 42.8141C542.891 42.6545 544.062 43.4422 544.241 44.5739C544.421 45.7055 543.535 46.7475 542.263 46.907C536.193 47.6647 530.146 48.8612 524.283 50.4565C523.717 50.611 523.134 50.5611 522.636 50.3568ZM479.699 71.3696C479.402 71.25 479.133 71.0705 478.909 70.8362C478.074 69.9688 478.186 68.6627 479.161 67.9199C484.003 64.2357 489.21 60.8607 494.63 57.8895C495.722 57.2913 497.157 57.5954 497.83 58.5675C498.502 59.5396 498.166 60.8109 497.068 61.4091C491.855 64.2706 486.845 67.516 482.187 71.0655C481.476 71.6039 480.5 71.6986 479.699 71.3696ZM449.67 105.833C448.515 105.334 448.039 104.098 448.599 103.066C451.385 97.976 454.647 93.0356 458.301 88.3843C460.066 86.146 463.872 88.509 462.112 90.7523C458.598 95.2291 455.454 99.9801 452.775 104.876C451.788 106.68 449.389 105.828 449.67 105.833ZM436.404 146.168C436.661 140.685 437.396 134.977 438.679 129.263C439.284 126.576 443.841 127.399 443.241 130.071C439.912 144.877 442.513 148.472 438.623 148.322C437.328 148.272 436.348 147.305 436.404 146.168Z" fill="#91B3FA"/>
<path d="M625.592 64.3275C618.571 60.0232 615.479 59.5819 617.049 57.165C617.7 56.1796 619.094 55.8267 620.229 56.415C622.936 57.8122 625.631 59.3319 628.232 60.9252C629.29 61.5723 629.555 62.8567 628.827 63.798C628.105 64.7246 626.672 64.9844 625.592 64.3275Z" fill="#91B3FA"/>
<path d="M675.716 137.357C674.636 129.806 672.948 127.483 676.017 126.916C677.278 126.683 678.503 127.403 678.77 128.52C679.403 131.249 679.93 134.046 680.327 136.83C680.492 137.964 679.593 139.001 678.318 139.144C677.047 139.291 675.882 138.492 675.716 137.357Z" fill="#91B3FA"/>
<path d="M672.219 179.315C676.818 164.831 674.516 161.295 678.371 161.713C679.649 161.85 680.553 162.881 680.398 164.013C679.634 169.565 678.391 175.091 676.688 180.438C676.343 181.536 675.055 182.175 673.822 181.864C672.588 181.553 671.864 180.416 672.219 179.315ZM650.797 219.556C647.786 217.379 652.28 216.322 660.744 203.384C662.287 201.021 666.307 203.095 664.764 205.462C661.613 210.277 658.018 214.914 654.068 219.249C653.259 220.138 651.796 220.271 650.797 219.556ZM612.997 246.179C611.185 243.141 615.774 243.722 629.266 234.764C631.727 233.129 634.514 236.438 632.047 238.077C627.019 241.417 621.666 244.429 616.143 247.04C615.01 247.573 613.601 247.191 612.997 246.179ZM566.489 257.443C566.384 256.305 567.333 255.306 568.616 255.213C585.494 253.978 588.385 250.829 589.299 254.178C589.598 255.288 588.834 256.408 587.586 256.674C581.499 257.98 575.247 258.877 568.99 259.335C567.712 259.424 566.594 258.575 566.489 257.443ZM518.722 251.562C519.93 248.297 522.682 251.655 539.24 254.116C542.266 254.56 541.517 258.646 538.476 258.198C532.284 257.274 526.132 255.919 520.195 254.174C518.997 253.823 518.308 252.659 518.722 251.562Z" fill="#91B3FA"/>
<path d="M492.529 242.4C489.884 240.884 487.273 239.257 484.77 237.569C483.752 236.877 483.551 235.579 484.328 234.67C486.281 232.382 488.226 235.014 495.049 238.925C496.127 239.543 496.436 240.823 495.74 241.781C495.036 242.755 493.589 243.011 492.529 242.4Z" fill="#91B3FA"/>
<path d="M530.43 194.905C528.517 193.928 528.129 192.007 529.038 190.605C530.004 189.124 532.154 188.619 533.803 189.474C536.893 191.068 540.209 192.372 543.655 193.363C544.407 193.447 562.125 199.733 582.265 190.587C622.209 172.382 617.486 119.937 574.725 107.673C550.124 100.616 523.794 111.267 513.232 131.654C502.597 152.182 514.619 162.866 507.263 164.376C505.387 164.764 503.517 163.726 503.081 162.058C500.732 153.061 501.184 143.633 504.389 134.795C514.11 107.963 546.598 93.0908 576.864 101.77C609.431 111.108 626.05 143.858 611.443 172.05C599.668 194.788 570.049 207.45 541.517 199.266C537.655 198.158 533.924 196.691 530.43 194.905Z" fill="#BDD0FB"/>
<path d="M520.901 269.048C520.81 268.079 519.697 267.238 517.815 266.566C519.861 265.564 520.995 264.49 520.901 263.434C520.609 260.239 509.239 258.448 495.498 259.431C481.762 260.418 470.856 263.806 471.148 267.001C471.234 267.969 472.348 268.806 474.23 269.479C472.183 270.484 471.053 271.562 471.148 272.615C471.234 273.584 472.348 274.424 474.23 275.093C472.183 276.102 471.053 277.176 471.148 278.233C471.234 279.201 472.348 280.038 474.23 280.711C472.183 281.716 471.053 282.791 471.148 283.847C471.275 285.261 473.576 286.398 477.283 287.144C477.233 288.185 477.262 289.329 477.377 290.594C477.915 296.482 485.357 301.095 495.202 301.095C505.048 301.095 513.566 294.805 513.66 288.898C513.685 287.451 513.619 286.175 513.471 285.046C518.18 283.646 521.049 281.935 520.901 280.28C520.81 279.311 519.697 278.47 517.815 277.798C519.861 276.796 520.995 275.718 520.901 274.665C520.81 273.697 519.697 272.856 517.815 272.184C519.861 271.179 520.995 270.104 520.901 269.048Z" fill="url(#paint1_linear_6_994)"/>
<path d="M489.142 288.413C485.063 288.413 481.328 288.145 478.243 287.62C478.065 287.592 477.946 287.437 477.982 287.278C478.013 287.12 478.188 287.014 478.366 287.046C483.194 287.867 489.641 288.05 496.52 287.557C502.148 287.152 507.412 286.345 511.744 285.218C511.919 285.175 512.101 285.263 512.152 285.418C512.204 285.577 512.105 285.739 511.93 285.785C507.554 286.919 502.247 287.733 496.572 288.141C494.017 288.325 491.518 288.413 489.142 288.413Z" fill="url(#paint2_linear_6_994)"/>
<path d="M489.209 282.79C483.907 282.79 479.172 282.346 475.832 281.502C475.653 281.459 475.553 281.296 475.605 281.14C475.653 280.984 475.832 280.895 476.012 280.938C480.772 282.144 488.44 282.52 496.522 281.938C504.514 281.367 511.97 279.923 516.462 278.081C516.63 278.01 516.825 278.074 516.901 278.219C516.977 278.368 516.905 278.542 516.738 278.613C512.178 280.48 504.641 281.945 496.574 282.524C494.057 282.705 491.575 282.79 489.209 282.79Z" fill="url(#paint3_linear_6_994)"/>
<path d="M489.142 277.182C483.421 277.182 478.411 276.66 475.04 275.67C474.867 275.62 474.771 275.452 474.831 275.302C474.887 275.145 475.072 275.063 475.245 275.113C479.938 276.488 487.893 276.942 496.523 276.324C504.514 275.749 511.97 274.305 516.466 272.464C516.631 272.397 516.824 272.457 516.9 272.604C516.976 272.754 516.908 272.929 516.739 272.997C512.179 274.866 504.642 276.328 496.575 276.907C494.02 277.092 491.517 277.182 489.142 277.182Z" fill="url(#paint4_linear_6_994)"/>
<path d="M489.186 271.567C484.643 271.567 480.514 271.238 477.306 270.603C477.127 270.567 477.014 270.412 477.054 270.254C477.091 270.095 477.269 269.994 477.448 270.03C482.274 270.986 489.226 271.231 496.519 270.708C504.44 270.138 511.859 268.713 516.357 266.891C516.523 266.823 516.722 266.891 516.795 267.035C516.872 267.183 516.799 267.356 516.633 267.425C512.062 269.272 504.566 270.719 496.572 271.296C494.045 271.477 491.558 271.567 489.186 271.567Z" fill="url(#paint5_linear_6_994)"/>
<path d="M461.924 240.7C460.261 235.445 457.427 230.533 453.608 226.253C445.429 217.083 432.088 198.437 430.445 172.989C428.057 135.972 464.962 117.439 498.642 119.955C532.317 122.472 565.551 144.776 561.915 179.214C559.679 200.404 546.343 216.474 536.414 225.703C530.111 231.566 525.618 238.742 523.179 246.564C520.203 256.13 513.114 268.051 496.259 268.782C474.454 269.72 465.398 251.638 461.924 240.7Z" fill="url(#paint6_linear_6_994)"/>
<path d="M501.828 261.399L513.614 193.219C513.856 191.814 514.635 190.869 515.358 191.11C516.072 191.35 516.457 192.69 516.214 194.099C516.205 194.136 516.196 194.181 516.192 194.217L502.767 261.761C502.666 262.266 502.377 262.592 502.121 262.478C501.869 262.368 501.745 261.891 501.828 261.399Z" fill="url(#paint7_linear_6_994)"/>
<path d="M489.597 261.941L477.812 193.766C477.569 192.354 476.792 191.409 476.073 191.654C475.355 191.894 474.971 193.228 475.213 194.641C475.222 194.677 475.232 194.722 475.236 194.759L488.659 262.303C488.76 262.812 489.048 263.133 489.304 263.019C489.556 262.914 489.679 262.429 489.597 261.941Z" fill="url(#paint8_linear_6_994)"/>
<path d="M513.53 187.369C513.232 186.942 512.537 186.78 511.982 187.012L505.422 189.737L503.142 183.968C503.021 183.665 502.746 183.396 502.345 183.255C501.59 182.977 500.685 183.222 500.331 183.806L500.317 183.823L494.918 192.578L489.915 180.115L489.906 180.095C489.784 179.792 489.523 179.518 489.146 179.336C488.307 178.929 487.197 179.124 486.67 179.771L479.126 189.007C478.819 189.384 478.926 189.895 479.392 190.172C479.891 190.471 480.609 190.401 480.996 190.019L487.64 183.425L493.617 195.282L493.622 195.286C493.72 195.481 493.897 195.647 494.149 195.746C494.708 195.983 495.412 195.821 495.715 195.39L501.487 187.149L503.66 191.317L503.678 191.354C503.692 191.383 503.711 191.412 503.734 191.441C504.033 191.869 504.723 192.03 505.278 191.798L513.064 188.563C513.619 188.331 513.829 187.796 513.53 187.369Z" fill="white"/>
<path d="M536.672 216.918C536.363 216.918 536.05 216.831 535.782 216.656C535.115 216.218 534.977 215.383 535.469 214.79C537.476 212.388 539.314 209.902 540.938 207.408C541.354 206.771 542.266 206.552 542.981 206.918C543.697 207.288 543.943 208.1 543.527 208.736C541.85 211.322 539.949 213.891 537.874 216.377C537.579 216.731 537.128 216.918 536.672 216.918Z" fill="white"/>
<path d="M546.367 202.117C546.167 202.117 545.968 202.082 545.774 202.005C545.012 201.711 544.667 200.929 544.997 200.256C557.45 174.748 546.706 153.334 546.6 153.123C546.255 152.458 546.585 151.667 547.337 151.361C548.09 151.054 548.973 151.343 549.318 152.017C549.789 152.928 560.717 174.727 547.74 201.318C547.498 201.819 546.944 202.117 546.367 202.117Z" fill="white"/>
<path d="M297.244 687.108C297.244 687.108 295.301 696.381 294.299 705.567C293.908 709.158 296.989 712.303 301.038 712.487C314.794 713.114 344.229 714.356 354.798 714.025C356.384 713.976 357.44 712.54 356.865 711.219C356.384 710.114 355.445 709.216 354.239 708.712L305.819 688.418L297.244 687.108Z" fill="url(#paint9_linear_6_994)"/>
<path d="M295.792 681.64L297.156 692.761C297.156 692.761 305.635 696.36 311.497 692.438L308.1 680.028L295.792 681.64Z" fill="url(#paint10_linear_6_994)"/>
<path d="M299.145 472.797C298.475 475.692 294.157 617.537 310.523 681.257C310.791 682.296 310.189 683.362 309.074 683.756C306.45 684.683 301.308 686.016 295.163 686.148C293.26 686.187 291.565 685.074 291.046 683.443C286.33 668.652 263.771 594.549 261.481 523.925C258.925 445.007 261.51 521.239 261.51 521.239L264.031 472.492L299.145 472.797Z" fill="url(#paint11_linear_6_994)"/>
<path d="M241.248 691.48C241.248 691.48 238.261 696.145 235.286 708.578C234.749 710.823 236.494 712.992 239.058 713.238C243.601 713.674 250.59 714.247 256.198 714.26C258.78 714.265 260.817 712.28 260.53 709.996C259.958 705.444 258.104 697.967 252.192 692.102L241.248 691.48Z" fill="url(#paint12_linear_6_994)"/>
<path d="M238.822 677.169L242.104 693.997C242.104 693.997 245.504 696.292 252.293 694.709L250.835 676.618L238.822 677.169Z" fill="url(#paint13_linear_6_994)"/>
<path d="M231.621 476.577C216.872 551.31 232.66 661.603 238.152 683.21C238.489 684.533 239.675 685.554 241.175 685.79C243.728 686.187 247.928 686.531 252.086 685.494C253.518 685.137 254.536 684 254.607 682.679C255.563 665.255 255.327 558.241 268.774 516.065C269.456 513.928 270.946 512.072 272.995 510.801L298.383 495.067L300.594 469.31L231.621 476.577Z" fill="url(#paint14_linear_6_994)"/>
<path d="M321.989 335.5C280.21 334.533 233.995 344.514 233.995 344.514C220.846 409.054 230.322 483.71 230.322 483.71C262.59 491.526 299.215 479.68 299.215 479.68C304.879 452.705 330.783 376.87 330.783 376.87C351.222 374.792 368.1 369.692 382.023 362.884C371.577 351.901 366.745 337.997 364.67 329.788C349.849 333.744 334.876 335.799 321.989 335.5Z" fill="url(#paint15_linear_6_994)"/>
<path d="M446.002 281.804C441.946 277.358 436.726 279.401 436.726 279.401C430.33 302.452 397.888 320.912 364.668 329.789C366.742 338.001 371.573 351.903 382.021 362.885C437.29 335.859 446.002 281.804 446.002 281.804Z" fill="url(#paint16_linear_6_994)"/>
<path d="M444.995 282.915C445.412 284.135 440.418 285.939 437.541 280.949C437.465 278.567 435.947 268.354 437.571 266.43C446.197 256.172 462.854 243.363 462.854 243.363C465.616 245.835 463.288 248.222 463.288 248.222L455.198 255.579C456.847 258.284 458.863 260.577 459.787 263.845C460.487 266.317 460.015 268.951 458.589 271.183C457.159 273.427 455.211 276.338 453.372 278.612C449.892 282.923 444.995 282.915 444.995 282.915Z" fill="url(#paint17_linear_6_994)"/>
<path d="M451.642 260.365L444.285 265.807L441.932 271.271L448.374 277.745C448.374 277.745 450.678 266.89 452.331 264.552C453.984 262.214 453.151 261.065 451.642 260.365Z" fill="url(#paint18_linear_6_994)"/>
<path d="M249.635 380.639L233.994 344.513C233.994 344.513 194.71 367.769 187.969 397.627C195.339 398.172 208.742 399.991 221.814 406.003C224.852 391.906 249.635 380.639 249.635 380.639Z" fill="url(#paint19_linear_6_994)"/>
<path d="M283.378 414.797C283.378 414.797 239.322 436.453 224.738 417.516C221.71 413.588 221.016 409.7 221.814 406.005C208.741 399.993 195.34 398.175 187.969 397.628C185.937 406.628 186.858 416.225 192.712 425.969C218.159 468.332 289.074 424.457 289.074 424.457L283.378 414.797Z" fill="url(#paint20_linear_6_994)"/>
<path d="M279.988 304.968L266.325 339.055C266.098 339.618 266.356 340.249 266.944 340.543C270.547 342.358 283.546 347.621 299.378 338.879C301.028 337.968 302.159 336.47 302.428 334.76L307.048 305.197L279.988 304.968Z" fill="url(#paint21_linear_6_994)"/>
<path d="M309.255 273.541C309.255 273.541 323.595 298.112 321.618 307.971C319.641 317.829 301.552 316.966 285.838 308.812L275.079 282.322L309.255 273.541Z" fill="url(#paint22_linear_6_994)"/>
<path d="M286.674 295.859C287.319 295.612 287.562 294.914 287.182 294.388C286.029 292.789 283.872 289.525 283.207 286.683C283.207 286.683 280.595 285.165 289.922 283.261C299.245 281.361 313.156 278.402 316.152 271.381C319.065 264.54 311.78 247.2 299.712 260.864C299.254 261.382 298.365 261.389 297.919 260.86C295.989 258.581 290.902 253.843 283.736 256.629C277.034 259.235 276.237 263.58 276.305 265.771C276.326 266.418 275.67 266.914 274.959 266.789C271.592 266.186 263.499 265.624 259.638 272.983C256.46 279.041 258.446 282.504 260.273 284.206C260.863 284.757 260.591 285.654 259.771 285.867C257.546 286.456 254.665 288.102 254.901 292.73C255.228 299.123 263.266 298.627 265.556 298.355C265.931 298.311 266.308 298.428 266.559 298.682C268.498 300.626 277.244 308.897 286.794 309.963C287.62 310.059 288.269 309.335 288.009 308.633L283.984 297.899C283.798 297.399 284.07 296.858 284.612 296.649L286.674 295.859Z" fill="url(#paint23_linear_6_994)"/>
<path d="M288.324 297.389C288.324 297.389 277.994 290.955 277.178 296.291C276.362 301.63 286.456 304.111 291.492 302.16L288.324 297.389Z" fill="url(#paint24_linear_6_994)"/>
<path d="M274.378 449.025L298.374 374.473C298.646 373.625 299.458 373.007 300.441 372.906C304.791 372.455 317.392 371.189 331.939 370.093C349.464 368.774 369.811 367.708 381.972 368.615C383.704 368.744 384.748 370.371 383.976 371.753C377.061 384.197 348.618 434.819 334.373 451.401C333.903 451.951 333.171 452.27 332.392 452.267L276.711 451.804C275.089 451.789 273.931 450.41 274.378 449.025Z" fill="url(#paint25_linear_6_994)"/>
<path d="M280.172 431.012C280.172 431.012 276.828 418.783 278.176 414.447C279.527 410.108 282.14 404.531 290.849 405.768C299.557 407.009 309.831 410.273 309.831 410.273C309.831 410.273 309.311 415.922 302.694 414.099L306.797 416.925C306.797 416.925 306.215 421.452 300.62 419.031L304.439 422.778C304.439 422.778 302.037 426.494 297.921 424.112C293.811 421.73 291.84 432.484 280.172 431.012Z" fill="url(#paint26_linear_6_994)"/>
<path d="M330.339 392.35C330.339 395.81 333.492 398.614 337.382 398.614C341.272 398.614 344.428 395.81 344.428 392.35C344.428 388.889 341.272 386.082 337.382 386.082C333.492 386.082 330.339 388.889 330.339 392.35Z" fill="#91B3FA"/>
<path d="M301.093 396.479L299.298 396.006L304.18 381.263C304.978 378.86 307.158 377.057 309.87 376.554C325.357 373.681 366.149 373.095 367.877 373.069L367.907 374.736C367.485 374.742 325.567 375.345 310.249 378.186C308.215 378.564 306.577 379.921 305.978 381.736L301.093 396.479Z" fill="#91B3FA"/>
<path d="M17.0544 605.116C14.4961 608.485 4.32819 684.725 2.73675 712.884C2.62902 714.787 4.34147 716.376 6.48484 716.376C8.33335 716.376 9.9062 715.179 10.1916 713.553L28.7895 607.542L17.0544 605.116Z" fill="#7D97F4"/>
<path d="M98.8046 605.116C101.363 608.485 111.531 684.725 113.122 712.884C113.23 714.787 111.518 716.376 109.374 716.376C107.526 716.376 105.953 715.179 105.668 713.553L87.0698 607.542L98.8046 605.116Z" fill="#7D97F4"/>
<path d="M1.67315 599.167L1.6643 599.997C1.60291 605.98 7.39609 610.884 14.6497 610.994L100.613 612.297C107.762 612.404 113.721 607.81 114.068 601.921L114.113 601.16C114.475 595.019 108.612 589.845 101.156 589.727L15.1564 588.353C7.79572 588.238 1.73513 593.097 1.67315 599.167Z" fill="#7D97F4"/>
<path d="M182.759 710.114C167.476 710.114 160.716 708.949 157.693 707.885C158.28 710.117 160.515 711.878 163.341 711.878H217.4C219.221 711.878 220.37 710.329 219.936 708.925C213.773 709.366 200.683 710.114 182.759 710.114Z" fill="#91B3FA"/>
<path d="M219.936 708.925C219.847 708.644 219.717 708.366 219.493 708.108C215.373 703.43 207.103 696.087 195.849 696.229C179.365 696.434 173.618 698.025 160.807 696.315L157.784 705.226C157.476 706.134 157.471 707.043 157.693 707.885C160.716 708.949 167.476 710.114 182.759 710.114C200.683 710.114 213.773 709.366 219.936 708.925Z" fill="url(#paint27_linear_6_994)"/>
<path d="M164.516 686.715L160.806 697.938C160.806 697.938 169.025 701.264 176.254 698.594L177.673 688.87L164.516 686.715Z" fill="url(#paint28_linear_6_994)"/>
<path d="M276.563 703.047C264.651 711.561 258.562 714.422 255.46 715.284C257.481 716.688 260.46 716.809 262.661 715.236L304.803 685.116C306.222 684.102 306.033 682.259 304.711 681.411C300.216 685.187 290.535 693.06 276.563 703.047Z" fill="#91B3FA"/>
<path d="M304.711 681.411C304.443 681.241 304.147 681.099 303.79 681.025C297.303 679.689 285.707 678.602 277.035 684.979C264.329 694.325 260.964 698.76 249.781 704.572L253.668 713.17C254.067 714.044 254.695 714.753 255.46 715.284C258.562 714.422 264.651 711.561 276.563 703.047C290.535 693.06 300.216 685.187 304.711 681.411Z" fill="url(#paint29_linear_6_994)"/>
<path d="M85.1607 558.855C85.1607 558.855 176.649 565.5 195.418 573.36C214.186 581.218 180.102 691.364 180.102 691.364C180.102 691.364 174.993 693.551 163.624 690.408C163.624 690.408 175.283 609.125 166.605 591.499L67.5474 577.086L85.1607 558.855Z" fill="url(#paint30_linear_6_994)"/>
<path d="M240.691 689.101C241.541 689.789 249.781 704.572 249.781 704.572C249.781 704.572 258.954 702.808 260.826 697.644L252.57 684.299L240.691 689.101Z" fill="url(#paint31_linear_6_994)"/>
<path d="M30.0579 558.175C30.0579 558.175 27.0764 564.557 27.198 573.037C27.3662 584.765 37.9659 594.282 51.1348 594.864L159.29 599.251C161.574 599.346 163.506 600.75 164.079 602.719C166.62 611.464 179.043 638.316 239.767 691.9C241.384 693.325 243.902 693.567 245.823 692.488L254.468 687.631C255.377 687.119 255.666 686.061 255.123 685.237L192.15 589.585C188.842 584.728 183.526 581.221 177.343 579.816L85.1607 558.855L30.0579 558.175Z" fill="url(#paint32_linear_6_994)"/>
<path d="M136.643 408.758C136.643 408.758 125.057 426.98 113.244 435.807L137.66 447.925C137.66 447.925 143.162 428.636 155.732 422.986L136.643 408.758Z" fill="url(#paint33_linear_6_994)"/>
<path d="M28.0935 558.855C28.0935 558.855 57.2914 565.185 85.1608 558.855C85.1608 558.855 124.158 512.227 139.245 499.533C139.245 499.533 163.311 533.313 216.875 538.099L219.862 532.161C219.862 532.161 177.219 514.676 164.091 487.808C150.964 460.943 145.691 449.484 133.748 442.474C126.309 438.108 121.855 435.126 119.554 433.498C118.294 432.605 116.555 432.505 115.18 433.248C102.505 440.119 42.8642 476.454 28.0935 558.855Z" fill="url(#paint34_linear_6_994)"/>
<path d="M137.662 498.877C137.1 498.877 136.544 498.651 136.175 498.223C126.877 487.441 121.699 475.553 121.483 475.054C121.112 474.193 121.594 473.232 122.56 472.901C123.528 472.571 124.608 473.001 124.98 473.86C125.031 473.978 130.191 485.808 139.147 496.196C139.777 496.929 139.622 497.971 138.801 498.533C138.461 498.764 138.06 498.877 137.662 498.877Z" fill="url(#paint35_linear_6_994)"/>
<path d="M213.655 529.06L219.685 527.629L237.99 523.859C240.195 523.405 242.512 523.754 244.424 524.826L260.165 533.634L216.698 533.568L213.655 529.06Z" fill="url(#paint36_linear_6_994)"/>
<path d="M155.039 381.435C155.039 381.435 166.298 398.082 168.252 407.285C170.206 416.487 173.343 422.242 161.569 425.516C149.795 428.795 138.853 424.647 131.986 416.057C131.986 416.057 121.262 402.84 122.331 396.784C123.401 390.73 155.039 381.435 155.039 381.435Z" fill="url(#paint37_linear_6_994)"/>
<path d="M135.121 408.932L136.644 408.754C136.644 408.754 128.671 398.039 133.889 395.38C139.106 392.723 160.366 386.197 164.056 378.753C167.616 371.573 162.292 363.461 155.874 361.77C155.467 361.661 155.039 361.873 154.892 362.23L154.515 363.131C154.257 363.752 153.282 363.779 152.985 363.171C152.702 362.599 151.779 362.572 151.488 363.143C150.35 365.373 146.94 369.186 136.716 372.133C122.209 376.315 113.172 382.823 114.285 391.988C114.355 392.572 113.706 392.971 113.106 392.735C111.92 392.269 110.122 392.197 108.035 394.227C104.404 397.761 107.248 405.483 117.163 410.953C117.634 411.211 117.718 411.804 117.297 412.124C115.813 413.253 113.727 415.773 120.435 418.019C127.297 420.315 131.042 419.538 132.426 419.044C132.798 418.911 133.011 418.569 132.934 418.215L131.172 410.182C131.08 409.767 131.402 409.368 131.874 409.313L135.121 408.932Z" fill="url(#paint38_linear_6_994)"/>
<path d="M135.746 410.586C135.746 410.586 130.777 399.691 125.559 403.522C120.341 407.348 130.382 415.816 135.017 415.702L135.746 410.586Z" fill="url(#paint39_linear_6_994)"/>
<path d="M196.861 541.218C196.932 541.221 197.003 541.223 197.076 541.223L289.936 541.139C292.232 541.139 294.092 539.485 294.089 537.446C294.086 535.408 292.218 533.723 289.927 533.76L197.065 533.841C194.771 533.844 192.912 535.498 192.915 537.535C192.918 539.512 194.665 541.121 196.861 541.218Z" fill="url(#paint40_linear_6_994)"/>
<path d="M325.9 460.326C325.865 460.384 325.835 460.439 325.806 460.497L286.734 535.429C285.766 537.283 286.669 539.478 288.747 540.336C290.828 541.194 293.333 540.396 294.26 538.535L333.332 463.603C334.3 461.749 333.397 459.554 331.319 458.696C329.303 457.866 326.924 458.596 325.9 460.326Z" fill="url(#paint41_linear_6_994)"/>
<path d="M569.064 710.805H559.265V616.523H569.064V710.805Z" fill="#7D97F4"/>
<path d="M607.085 712.621H521.242C521.242 709.487 524.1 706.948 527.62 706.948H600.707C604.232 706.948 607.085 709.487 607.085 712.621Z" fill="#7D97F4"/>
<path d="M619.829 613.251C619.829 618.408 615.088 622.626 609.289 622.626H522.44C516.641 622.626 511.9 618.408 511.9 613.251V604.774C511.9 599.618 516.641 595.399 522.44 595.399H609.289C615.088 595.399 619.829 599.618 619.829 604.774V613.251Z" fill="#7D97F4"/>
<path d="M491.809 553.663C491.809 553.663 477.247 555.671 460.87 565.406C458.294 566.939 456.88 569.612 457.265 572.347C459.229 586.162 467.29 630.874 493.875 674.547C495.276 676.849 495.677 679.532 495.062 682.092L490.44 701.209L481.877 708.353H503.937L518.624 672.995L512.346 671.228C507.473 669.858 504.131 665.875 504.046 661.331L503.309 623.402C503.937 606.503 491.659 594.844 491.659 594.844L526.892 593.321L491.809 553.663Z" fill="url(#paint42_linear_6_994)"/>
<path d="M473.266 711.802C471.255 714.141 494.89 717.226 506.828 712.112C506.828 712.112 523.38 686.496 523.38 673.307C523.38 673.307 522.066 670.618 512.348 671.227C512.348 671.227 506.788 701.558 500.922 704.955C495.055 708.352 484.507 705.299 484.507 705.299C484.507 705.299 476.231 708.35 473.266 711.802Z" fill="url(#paint43_linear_6_994)"/>
<path d="M522.437 595.4C522.248 595.111 484.505 591.362 484.505 591.362C484.505 591.362 485.74 601.572 481.877 615.623C478.015 629.676 422.597 690.561 422.597 690.561L428.407 706.948C410.443 712.514 392.768 713.404 375.379 709.783L411.388 690.561C411.388 690.561 445.092 588.401 465.74 570.173L503.575 558.53L522.437 595.4Z" fill="url(#paint44_linear_6_994)"/>
<path d="M607.085 535.954C607.085 535.954 628.836 564.728 630.618 577.852C632.404 590.976 624.663 596.308 601.843 597.188C579.028 598.067 518.112 598.054 518.112 598.054L466.119 558.529C466.119 558.529 504.009 546.506 513.855 543.106C523.711 539.703 607.085 535.954 607.085 535.954Z" fill="url(#paint45_linear_6_994)"/>
<path d="M426.213 701.43C426.213 701.43 432.469 706.819 428.244 712.816C428.244 712.816 378.686 720.629 365.231 717.084C365.231 717.084 368.025 711.411 383.173 704.955L382.058 705.719C380.641 706.686 381.47 708.696 383.253 708.607C393.236 708.101 413.898 706.473 426.213 701.43Z" fill="url(#paint46_linear_6_994)"/>
<path d="M512.887 353.491C557.34 346.766 578.268 379.016 576.737 385.795C576.539 386.692 577.486 387.454 578.485 387.215C583.586 385.992 594.863 384.45 601.853 392.243C608.019 399.119 603.412 405.613 599.649 409.175C598.744 410.034 599.507 411.429 600.822 411.282C610.205 410.231 630.591 409.979 633.926 426.965C637.04 442.808 624.642 447.276 617.289 448.536C616.05 448.749 615.758 450.203 616.823 450.807C620.492 452.876 624.746 457.155 623.026 465.595C620.332 478.825 591.175 477.743 587.769 477.57C587.552 477.559 587.35 477.504 587.161 477.407L540.453 453.713C540.09 453.53 539.836 453.209 539.765 452.842L530.335 404.402C530.259 404.009 530.396 403.611 530.707 403.321L500.254 365.101C489.203 363.656 512.36 353.57 512.887 353.491Z" fill="url(#paint47_linear_6_994)"/>
<path d="M548.277 532.147C548.277 532.147 522.951 510.695 510.485 496.489C503.749 488.81 501.63 478.7 504.745 469.361C510.438 452.305 520.552 434.642 521.478 431.888C522.891 427.677 551.285 427.852 551.285 427.852C551.285 427.852 607.161 460.11 629.114 514.751L604.462 521.58C604.462 521.58 589.872 499.808 575.455 485.964C575.455 485.964 600.397 515.274 601.277 527.274L548.277 532.147Z" fill="url(#paint48_linear_6_994)"/>
<path d="M518.041 408.339C518.338 409.216 525.75 431.071 526.329 431.522C526.907 431.977 542.582 432.727 549.96 428.241L531.657 396.403L518.041 408.339Z" fill="url(#paint49_linear_6_994)"/>
<path d="M488.327 380.26C488.327 380.26 484.743 392.78 494.657 409.619C504.563 426.458 515.783 426.439 521.917 421.049C528.048 415.658 535.607 406.512 533.813 390.233C532.016 373.952 493.498 364.336 488.327 380.26Z" fill="url(#paint50_linear_6_994)"/>
<path d="M520.11 391.118C520.11 391.118 503.663 368.76 488.249 386.358L487.97 392.754C487.97 392.754 469.913 390.848 473.071 376.122C476.23 361.393 491.84 352.187 511.936 358.569C532.033 364.947 543.548 371.492 544.846 384.3C546.145 397.111 534.684 394.302 534.684 394.302C534.684 394.302 530.947 385.281 525.632 384.344C520.318 383.407 521.7 390.441 521.7 390.441L520.11 391.118Z" fill="url(#paint51_linear_6_994)"/>
<path d="M524.316 390.817C524.316 390.817 515.789 379.367 524.528 377.662C533.267 375.952 531.908 388.817 530.966 393.575L524.316 390.817Z" fill="url(#paint52_linear_6_994)"/>
<path d="M496.684 533.738L515.29 517.787L541.028 527.459C541.028 527.459 566.652 530.99 581.314 527.459C595.976 523.928 595.976 523.928 595.976 523.928L629.113 514.752L634.321 527.834C635.636 531.155 634.312 534.844 631.083 536.884C628.213 538.698 624.853 540.688 622.713 541.523C618.349 543.221 515.14 540.347 515.14 540.347L496.684 533.738Z" fill="url(#paint53_linear_6_994)"/>
<path d="M567.097 541.26C567.015 541.262 566.933 541.265 566.85 541.265L458.916 541.16C456.248 541.158 454.089 539.23 454.089 536.857C454.093 534.484 456.265 532.523 458.925 532.565L566.859 532.67C569.528 532.672 571.686 534.599 571.682 536.973C571.682 539.27 569.649 541.147 567.097 541.26Z" fill="url(#paint54_linear_6_994)"/>
<path d="M361.89 454.093H451.778C458.405 454.093 464.44 457.496 467.273 462.83L508.827 541.207H397.12C392.849 541.207 389.008 538.885 387.436 535.349L355.212 462.823C353.352 458.635 356.823 454.093 361.89 454.093Z" fill="url(#paint55_linear_6_994)"/>
<path d="M425.215 494.28C427.161 499.663 425.721 504.891 422 505.955C418.275 507.02 413.678 503.521 411.731 498.14C409.781 492.757 411.219 487.529 414.947 486.461C418.667 485.397 423.265 488.896 425.215 494.28Z" fill="#7D97F4"/>
<path d="M690.143 700.739C690.143 700.739 691.277 706.334 691.723 712.976C691.915 715.806 689.556 718.263 686.387 718.539C675.337 719.492 650.193 721.251 634.137 719.19C631.884 718.901 630.993 716.444 632.653 715.066C639.274 709.579 655.266 698.907 681.578 696.573L690.143 700.739Z" fill="url(#paint56_linear_6_994)"/>
<path d="M695.64 688.127L690.05 700.303C689.287 701.973 687.385 703.01 685.366 702.824C684.003 702.695 682.381 702.461 680.804 702.036C677.656 701.185 675.876 698.213 676.822 695.407L681.038 682.863L695.64 688.127Z" fill="url(#paint57_linear_6_994)"/>
<path d="M791.129 710.437C791.129 710.437 779.948 718.762 775.59 729.44C774.387 732.377 776.925 735.47 780.44 735.47H803.454C806.818 735.47 809.402 732.774 808.818 729.823C807.35 722.451 803.124 710.469 791.129 710.437Z" fill="url(#paint58_linear_6_994)"/>
<path d="M804.987 699.605C804.987 699.605 802.725 708.5 800.992 714.378C800.675 715.444 799.392 716.029 798.229 715.659C794.746 714.551 791.908 714.06 789.847 714.307C788.897 714.42 788.068 713.716 788.051 712.861L787.838 698.088L804.987 699.605Z" fill="url(#paint59_linear_6_994)"/>
<path d="M745.5 499.455L677.47 684.068C677.47 684.068 690.52 691.669 696.735 691.354L777.542 542.985C777.542 542.985 791.682 634.405 784.83 700.036L807.975 701.608C807.975 701.608 845.607 533.884 817.103 476.438L745.5 499.455Z" fill="url(#paint60_linear_6_994)"/>
<path d="M777.11 541.391C777.132 541.391 777.166 541.388 777.188 541.386C777.551 541.344 777.808 541.052 777.758 540.732L775.12 522.092C775.075 521.769 774.751 521.546 774.387 521.583C774.024 521.622 773.767 521.916 773.812 522.236L776.45 540.876C776.495 541.173 776.78 541.391 777.11 541.391Z" fill="url(#paint61_linear_6_994)"/>
<path d="M732.75 337.003C732.75 337.003 787.865 341.356 780.069 376.289C780.069 376.289 810.54 427.292 824.778 487.372C825.249 489.329 823.773 491.235 821.563 491.57L729.764 505.55C727.236 505.936 724.796 504.532 724.149 502.319L702.215 426.924L693.667 461.977L666.519 455.685L689.376 352.677C689.376 352.677 692.568 337.649 732.75 337.003Z" fill="url(#paint62_linear_6_994)"/>
<path d="M701.751 423.551C701.798 423.551 701.849 423.546 701.9 423.538C702.264 423.467 702.5 423.142 702.418 422.813L694.767 391.565C694.685 391.237 694.326 391.027 693.952 391.1C693.588 391.168 693.352 391.492 693.429 391.82L701.085 423.073C701.157 423.357 701.434 423.551 701.751 423.551Z" fill="#91B3FA"/>
<path d="M707.291 516.546C710.18 515.131 713.566 514.74 716.771 515.449L723.155 516.864C724.509 517.163 725.858 516.333 726.016 515.094L732.624 462.771C740.886 466.26 752.807 465.845 756.739 465.588L741.53 527.276H688.299L707.291 516.546Z" fill="url(#paint63_linear_6_994)"/>
<path d="M565.861 403.043L567.47 398.291C568.398 395.551 570.671 393.34 573.655 392.275L602.753 381.863C602.753 381.863 603.19 378.541 596.604 376.289C590.018 374.033 591.555 367.47 591.555 367.47C591.555 367.47 600.556 371.121 613.733 376.912C621.268 380.225 625.495 386.074 627.737 390.474L693.672 461.976L685.935 466.707C675.751 472.929 661.752 469.873 655.968 460.168L620.243 399.239C602.312 404.03 584.168 404.949 565.861 403.043Z" fill="url(#paint64_linear_6_994)"/>
<path d="M714.893 303.648L731.847 345.849C731.847 345.849 716.83 356.293 705.879 352.761L697.333 328.568C697.333 328.568 703.862 299.002 714.893 303.648Z" fill="url(#paint65_linear_6_994)"/>
<path d="M664.294 288.489C664.294 289.139 680.626 329.609 680.626 329.609L706.406 320.824L697.334 280.423C697.334 280.423 664.294 277.6 664.294 288.489Z" fill="url(#paint66_linear_6_994)"/>
<path d="M692.81 290.263L699.455 311.201C699.544 311.475 699.586 311.744 699.586 312.023C699.591 313.727 699.116 319.605 692.387 318.807C686.279 318.082 680.699 317.497 677.149 318.988C675.552 319.652 674.789 321.286 675.385 322.763C676.867 326.436 680.386 334.669 684.671 341.402C685.543 342.772 687.449 343.301 689.051 342.651C693.896 340.691 703.976 336.303 711.159 331.089C712.13 330.378 712.6 329.268 712.365 328.168C711.238 322.809 707.871 306.525 707.724 301.858C707.583 297.475 713.112 294.131 715.544 292.873C716.343 292.46 716.907 291.782 717.126 290.983C717.888 288.16 718.541 281.78 709.384 280.373C707.469 280.08 706.221 278.446 706.607 276.751C707.385 273.38 707.135 268.416 699.936 266.586C692.617 264.729 688.012 268.648 685.669 271.652C684.724 272.869 682.949 273.264 681.435 272.66C680.568 272.316 679.524 272.302 678.402 273.143C676.888 274.276 674.591 273.932 673.479 272.474C671.349 269.683 667.47 266.893 660.903 268.783C649.257 272.135 649.815 284.078 654.086 290.574C658.351 297.066 670.749 292.794 676.616 288.49C681.08 285.221 687.871 287.175 690.873 288.299C691.823 288.657 692.528 289.381 692.81 290.263Z" fill="url(#paint67_linear_6_994)"/>
<path d="M710.063 309.5C710.063 309.5 703.169 297.897 707.728 294.256C712.282 290.616 720.008 291.212 719.799 300.281C719.542 311.562 710.063 309.5 710.063 309.5Z" fill="url(#paint68_linear_6_994)"/>
<path d="M751.397 466.371C755.158 466.371 757.838 466.119 758.135 466.091L758.622 466.04L778.694 382.806C778.773 382.478 778.538 382.153 778.168 382.085C777.793 382.011 777.435 382.224 777.357 382.549L757.491 464.922C754.503 465.156 738.554 466.098 730.132 460.792L747.525 388.474L743.893 382.392C743.719 382.095 743.3 381.982 742.97 382.139C742.634 382.297 742.505 382.665 742.684 382.961L746.081 388.656L728.616 461.305L728.969 461.536C735.051 465.602 744.85 466.371 751.397 466.371Z" fill="#91B3FA"/>
<path d="M149.699 720.148C149.238 720.148 148.77 720.059 148.319 719.873C146.545 719.13 145.725 717.134 146.489 715.412L219.83 549.884C220.591 548.162 222.648 547.367 224.425 548.107C226.199 548.85 227.016 550.845 226.255 552.568L152.913 718.095C152.344 719.379 151.055 720.148 149.699 720.148Z" fill="url(#paint69_linear_6_994)"/>
<path d="M232.32 720.148C230.965 720.148 229.676 719.379 229.106 718.095L155.766 552.568C155.003 550.845 155.822 548.85 157.597 548.107C159.369 547.367 161.427 548.162 162.19 549.884L235.531 715.412C236.296 717.134 235.475 719.13 233.701 719.873C233.25 720.059 232.781 720.148 232.32 720.148Z" fill="url(#paint70_linear_6_994)"/>
<path d="M647.444 720.148C646.981 720.148 646.513 720.059 646.065 719.873C644.292 719.13 643.471 717.135 644.234 715.412L717.573 549.885C718.336 548.162 720.394 547.367 722.167 548.107C723.945 548.85 724.766 550.845 723.998 552.568L650.659 718.096C650.091 719.379 648.802 720.148 647.444 720.148Z" fill="url(#paint71_linear_6_994)"/>
<path d="M730.064 720.148C728.708 720.148 727.421 719.379 726.846 718.096L653.508 552.568C652.747 550.846 653.566 548.851 655.343 548.108C657.114 547.367 659.172 548.163 659.938 549.885L733.277 715.412C734.037 717.135 733.218 719.13 731.442 719.873C730.995 720.059 730.527 720.148 730.064 720.148Z" fill="url(#paint72_linear_6_994)"/>
<path d="M636.806 538.194H743.027V528.443H636.806C639.075 528.443 639.075 538.194 636.806 538.194Z" fill="#91B3FA"/>
<path d="M742.03 538.194C742.58 538.194 743.026 537.794 743.026 537.306V529.33C743.026 528.842 742.58 528.443 742.03 528.443H634.559C634.015 528.443 633.563 528.044 633.563 527.556V527.125C633.563 526.637 634.015 526.238 634.559 526.238H749.11C751.646 526.238 753.698 528.065 753.698 530.318V536.55C753.698 538.677 751.761 540.399 749.371 540.399H634.559C634.015 540.399 633.563 540 633.563 539.511V539.081C633.563 538.593 634.015 538.194 634.559 538.194H742.03Z" fill="url(#paint73_linear_6_994)"/>
<path d="M758.428 544.767C758.783 543.678 758.296 542.551 757.104 541.698C755.905 540.842 754.127 540.346 752.245 540.346H115.762C113.291 540.346 110.99 541.089 109.659 542.318C108.328 543.546 108.149 545.09 109.186 546.413L116.083 555.221C117.663 557.238 121.085 558.529 124.85 558.529H747.878C751.38 558.529 754.395 557.064 755.057 555.035L758.428 544.767Z" fill="url(#paint74_linear_6_994)"/>
<defs>
<linearGradient id="paint0_linear_6_994" x1="1984.95" y1="1044.34" x2="722.681" y2="-718.072" gradientUnits="userSpaceOnUse">
<stop stop-color="#DAE3FE"/>
<stop offset="1" stop-color="#E9EFFD"/>
</linearGradient>
<linearGradient id="paint1_linear_6_994" x1="745.043" y1="32.9365" x2="733.858" y2="115.928" gradientUnits="userSpaceOnUse">
<stop stop-color="#09005D"/>
<stop offset="1" stop-color="#1A0F91"/>
</linearGradient>
<linearGradient id="paint2_linear_6_994" x1="716.26" y1="29.667" x2="697.7" y2="259.799" gradientUnits="userSpaceOnUse">
<stop stop-color="#53D8FF"/>
<stop offset="1" stop-color="#3840F7"/>
</linearGradient>
<linearGradient id="paint3_linear_6_994" x1="723.203" y1="23.6441" x2="704.505" y2="255.471" gradientUnits="userSpaceOnUse">
<stop stop-color="#53D8FF"/>
<stop offset="1" stop-color="#3840F7"/>
</linearGradient>
<linearGradient id="paint4_linear_6_994" x1="727.915" y1="17.6924" x2="709.086" y2="251.15" gradientUnits="userSpaceOnUse">
<stop stop-color="#53D8FF"/>
<stop offset="1" stop-color="#3840F7"/>
</linearGradient>
<linearGradient id="paint5_linear_6_994" x1="736.854" y1="9.75511" x2="717.846" y2="245.442" gradientUnits="userSpaceOnUse">
<stop stop-color="#53D8FF"/>
<stop offset="1" stop-color="#3840F7"/>
</linearGradient>
<linearGradient id="paint6_linear_6_994" x1="963.677" y1="-410.878" x2="926.912" y2="-130.736" gradientUnits="userSpaceOnUse">
<stop stop-color="#FF928E"/>
<stop offset="1" stop-color="#FE7062"/>
</linearGradient>
<linearGradient id="paint7_linear_6_994" x1="1242.25" y1="-590.827" x2="1082.18" y2="-339.777" gradientUnits="userSpaceOnUse">
<stop stop-color="#E1473D"/>
<stop offset="1" stop-color="#E9605A"/>
</linearGradient>
<linearGradient id="paint8_linear_6_994" x1="1215.02" y1="-606.253" x2="1055.09" y2="-355.412" gradientUnits="userSpaceOnUse">
<stop stop-color="#E1473D"/>
<stop offset="1" stop-color="#E9605A"/>
</linearGradient>
<linearGradient id="paint9_linear_6_994" x1="363.117" y1="671.257" x2="202.301" y2="864.2" gradientUnits="userSpaceOnUse">
<stop stop-color="#09005D"/>
<stop offset="1" stop-color="#1A0F91"/>
</linearGradient>
<linearGradient id="paint10_linear_6_994" x1="295.733" y1="687.059" x2="311.551" y2="687.227" gradientUnits="userSpaceOnUse">
<stop stop-color="#FEBBBA"/>
<stop offset="1" stop-color="#FF928E"/>
</linearGradient>
<linearGradient id="paint11_linear_6_994" x1="369.786" y1="480.003" x2="238.422" y2="676.238" gradientUnits="userSpaceOnUse">
<stop stop-color="#09005D"/>
<stop offset="1" stop-color="#1A0F91"/>
</linearGradient>
<linearGradient id="paint12_linear_6_994" x1="314.073" y1="641.74" x2="156.309" y2="831.021" gradientUnits="userSpaceOnUse">
<stop stop-color="#09005D"/>
<stop offset="1" stop-color="#1A0F91"/>
</linearGradient>
<linearGradient id="paint13_linear_6_994" x1="238.731" y1="685.853" x2="252.388" y2="685.999" gradientUnits="userSpaceOnUse">
<stop stop-color="#FEBBBA"/>
<stop offset="1" stop-color="#FF928E"/>
</linearGradient>
<linearGradient id="paint14_linear_6_994" x1="342.968" y1="462.048" x2="211.607" y2="658.281" gradientUnits="userSpaceOnUse">
<stop stop-color="#09005D"/>
<stop offset="1" stop-color="#1A0F91"/>
</linearGradient>
<linearGradient id="paint15_linear_6_994" x1="-362.505" y1="-863.535" x2="-219.481" y2="-584.83" gradientUnits="userSpaceOnUse">
<stop stop-color="#FF928E"/>
<stop offset="1" stop-color="#FE7062"/>
</linearGradient>
<linearGradient id="paint16_linear_6_994" x1="537.125" y1="135.61" x2="645.905" y2="136.772" gradientUnits="userSpaceOnUse">
<stop stop-color="#FEBBBA"/>
<stop offset="1" stop-color="#FF928E"/>
</linearGradient>
<linearGradient id="paint17_linear_6_994" x1="668.473" y1="74.7412" x2="603.538" y2="236.644" gradientUnits="userSpaceOnUse">
<stop stop-color="#FEBBBA"/>
<stop offset="1" stop-color="#FF928E"/>
</linearGradient>
<linearGradient id="paint18_linear_6_994" x1="671.199" y1="45.8531" x2="698.16" y2="0.205875" gradientUnits="userSpaceOnUse">
<stop stop-color="#FEBBBA"/>
<stop offset="1" stop-color="#FF928E"/>
</linearGradient>
<linearGradient id="paint19_linear_6_994" x1="-412.793" y1="-786.249" x2="-273.781" y2="-515.359" gradientUnits="userSpaceOnUse">
<stop stop-color="#FF928E"/>
<stop offset="1" stop-color="#FE7062"/>
</linearGradient>
<linearGradient id="paint20_linear_6_994" x1="208.804" y1="391.054" x2="318.093" y2="392.222" gradientUnits="userSpaceOnUse">
<stop stop-color="#FEBBBA"/>
<stop offset="1" stop-color="#FF928E"/>
</linearGradient>
<linearGradient id="paint21_linear_6_994" x1="380.399" y1="172.931" x2="432.366" y2="173.486" gradientUnits="userSpaceOnUse">
<stop stop-color="#FEBBBA"/>
<stop offset="1" stop-color="#FF928E"/>
</linearGradient>
<linearGradient id="paint22_linear_6_994" x1="478.095" y1="103.449" x2="422.17" y2="64.2774" gradientUnits="userSpaceOnUse">
<stop stop-color="#FEBBBA"/>
<stop offset="1" stop-color="#FF928E"/>
</linearGradient>
<linearGradient id="paint23_linear_6_994" x1="402.354" y1="10.2667" x2="474.664" y2="75.7363" gradientUnits="userSpaceOnUse">
<stop stop-color="#09005D"/>
<stop offset="1" stop-color="#1A0F91"/>
</linearGradient>
<linearGradient id="paint24_linear_6_994" x1="440.964" y1="141.776" x2="392.433" y2="107.784" gradientUnits="userSpaceOnUse">
<stop stop-color="#FEBBBA"/>
<stop offset="1" stop-color="#FF928E"/>
</linearGradient>
<linearGradient id="paint25_linear_6_994" x1="378.273" y1="295.533" x2="429.636" y2="536.133" gradientUnits="userSpaceOnUse">
<stop stop-color="#09005D"/>
<stop offset="1" stop-color="#1A0F91"/>
</linearGradient>
<linearGradient id="paint26_linear_6_994" x1="298.445" y1="396.52" x2="332.02" y2="396.52" gradientUnits="userSpaceOnUse">
<stop stop-color="#FEBBBA"/>
<stop offset="1" stop-color="#FF928E"/>
</linearGradient>
<linearGradient id="paint27_linear_6_994" x1="181.805" y1="556.852" x2="187.068" y2="701.798" gradientUnits="userSpaceOnUse">
<stop stop-color="#4F52FF"/>
<stop offset="1" stop-color="#4042E2"/>
</linearGradient>
<linearGradient id="paint28_linear_6_994" x1="160.806" y1="693.173" x2="177.672" y2="693.173" gradientUnits="userSpaceOnUse">
<stop stop-color="#FEBBBA"/>
<stop offset="1" stop-color="#FF928E"/>
</linearGradient>
<linearGradient id="paint29_linear_6_994" x1="270.849" y1="553.62" x2="276.111" y2="698.566" gradientUnits="userSpaceOnUse">
<stop stop-color="#4F52FF"/>
<stop offset="1" stop-color="#4042E2"/>
</linearGradient>
<linearGradient id="paint30_linear_6_994" x1="67.5474" y1="625.481" x2="201.058" y2="625.481" gradientUnits="userSpaceOnUse">
<stop stop-color="#09005D"/>
<stop offset="1" stop-color="#1A0F91"/>
</linearGradient>
<linearGradient id="paint31_linear_6_994" x1="240.691" y1="694.436" x2="260.826" y2="694.436" gradientUnits="userSpaceOnUse">
<stop stop-color="#FEBBBA"/>
<stop offset="1" stop-color="#FF928E"/>
</linearGradient>
<linearGradient id="paint32_linear_6_994" x1="188.821" y1="576.001" x2="61.1924" y2="738.684" gradientUnits="userSpaceOnUse">
<stop stop-color="#09005D"/>
<stop offset="1" stop-color="#1A0F91"/>
</linearGradient>
<linearGradient id="paint33_linear_6_994" x1="140.019" y1="424.459" x2="148.447" y2="400.565" gradientUnits="userSpaceOnUse">
<stop stop-color="#FEBBBA"/>
<stop offset="1" stop-color="#FF928E"/>
</linearGradient>
<linearGradient id="paint34_linear_6_994" x1="396.987" y1="160.118" x2="139.852" y2="600.619" gradientUnits="userSpaceOnUse">
<stop stop-color="#4F52FF"/>
<stop offset="1" stop-color="#4042E2"/>
</linearGradient>
<linearGradient id="paint35_linear_6_994" x1="135.286" y1="478.659" x2="296.899" y2="175.842" gradientUnits="userSpaceOnUse">
<stop stop-color="#09005D"/>
<stop offset="1" stop-color="#1A0F91"/>
</linearGradient>
<linearGradient id="paint36_linear_6_994" x1="213.655" y1="528.651" x2="260.165" y2="528.651" gradientUnits="userSpaceOnUse">
<stop stop-color="#FEBBBA"/>
<stop offset="1" stop-color="#FF928E"/>
</linearGradient>
<linearGradient id="paint37_linear_6_994" x1="190.296" y1="347.994" x2="146.851" y2="396.711" gradientUnits="userSpaceOnUse">
<stop stop-color="#FEBBBA"/>
<stop offset="1" stop-color="#FF928E"/>
</linearGradient>
<linearGradient id="paint38_linear_6_994" x1="159.229" y1="300.982" x2="212.588" y2="360.261" gradientUnits="userSpaceOnUse">
<stop stop-color="#09005D"/>
<stop offset="1" stop-color="#1A0F91"/>
</linearGradient>
<linearGradient id="paint39_linear_6_994" x1="168.18" y1="363.969" x2="126.684" y2="410.499" gradientUnits="userSpaceOnUse">
<stop stop-color="#FEBBBA"/>
<stop offset="1" stop-color="#FF928E"/>
</linearGradient>
<linearGradient id="paint40_linear_6_994" x1="-9753.27" y1="-8935.44" x2="-9609.42" y2="-8762.54" gradientUnits="userSpaceOnUse">
<stop stop-color="#09005D"/>
<stop offset="1" stop-color="#1A0F91"/>
</linearGradient>
<linearGradient id="paint41_linear_6_994" x1="14178.2" y1="-3568.44" x2="13955.6" y2="-3486.43" gradientUnits="userSpaceOnUse">
<stop stop-color="#09005D"/>
<stop offset="1" stop-color="#1A0F91"/>
</linearGradient>
<linearGradient id="paint42_linear_6_994" x1="576.76" y1="1042.1" x2="713.424" y2="427.534" gradientUnits="userSpaceOnUse">
<stop stop-color="#FEBBBA"/>
<stop offset="1" stop-color="#FF928E"/>
</linearGradient>
<linearGradient id="paint43_linear_6_994" x1="956.967" y1="301.396" x2="821.974" y2="556.895" gradientUnits="userSpaceOnUse">
<stop stop-color="#09005D"/>
<stop offset="1" stop-color="#1A0F91"/>
</linearGradient>
<linearGradient id="paint44_linear_6_994" x1="654.31" y1="659.501" x2="681.15" y2="209.399" gradientUnits="userSpaceOnUse">
<stop stop-color="#FEBBBA"/>
<stop offset="1" stop-color="#FF928E"/>
</linearGradient>
<linearGradient id="paint45_linear_6_994" x1="818.972" y1="397.538" x2="1080.69" y2="397.538" gradientUnits="userSpaceOnUse">
<stop stop-color="#09005D"/>
<stop offset="1" stop-color="#1A0F91"/>
</linearGradient>
<linearGradient id="paint46_linear_6_994" x1="722.462" y1="338.595" x2="606.737" y2="557.627" gradientUnits="userSpaceOnUse">
<stop stop-color="#09005D"/>
<stop offset="1" stop-color="#1A0F91"/>
</linearGradient>
<linearGradient id="paint47_linear_6_994" x1="1008.59" y1="4.798" x2="977.732" y2="187.046" gradientUnits="userSpaceOnUse">
<stop stop-color="#09005D"/>
<stop offset="1" stop-color="#1A0F91"/>
</linearGradient>
<linearGradient id="paint48_linear_6_994" x1="818.159" y1="592.37" x2="938.635" y2="288.715" gradientUnits="userSpaceOnUse">
<stop stop-color="#4F52FF"/>
<stop offset="1" stop-color="#4042E2"/>
</linearGradient>
<linearGradient id="paint49_linear_6_994" x1="825.933" y1="299.775" x2="814.722" y2="218.899" gradientUnits="userSpaceOnUse">
<stop stop-color="#FEBBBA"/>
<stop offset="1" stop-color="#FF928E"/>
</linearGradient>
<linearGradient id="paint50_linear_6_994" x1="728.798" y1="229.325" x2="829.345" y2="191.192" gradientUnits="userSpaceOnUse">
<stop stop-color="#FEBBBA"/>
<stop offset="1" stop-color="#FF928E"/>
</linearGradient>
<linearGradient id="paint51_linear_6_994" x1="720.449" y1="135.825" x2="827.402" y2="269.129" gradientUnits="userSpaceOnUse">
<stop stop-color="#09005D"/>
<stop offset="1" stop-color="#1A0F91"/>
</linearGradient>
<linearGradient id="paint52_linear_6_994" x1="722.572" y1="223.545" x2="822.748" y2="185.553" gradientUnits="userSpaceOnUse">
<stop stop-color="#FEBBBA"/>
<stop offset="1" stop-color="#FF928E"/>
</linearGradient>
<linearGradient id="paint53_linear_6_994" x1="1010.19" y1="333.538" x2="1230.78" y2="333.538" gradientUnits="userSpaceOnUse">
<stop stop-color="#FEBBBA"/>
<stop offset="1" stop-color="#FF928E"/>
</linearGradient>
<linearGradient id="paint54_linear_6_994" x1="920.018" y1="357.859" x2="797.59" y2="403.001" gradientUnits="userSpaceOnUse">
<stop stop-color="#09005D"/>
<stop offset="1" stop-color="#1A0F91"/>
</linearGradient>
<linearGradient id="paint55_linear_6_994" x1="668.99" y1="335.47" x2="596.691" y2="421.378" gradientUnits="userSpaceOnUse">
<stop stop-color="#09005D"/>
<stop offset="1" stop-color="#1A0F91"/>
</linearGradient>
<linearGradient id="paint56_linear_6_994" x1="1228.78" y1="764.248" x2="1227.54" y2="911.588" gradientUnits="userSpaceOnUse">
<stop stop-color="#09005D"/>
<stop offset="1" stop-color="#1A0F91"/>
</linearGradient>
<linearGradient id="paint57_linear_6_994" x1="1275.32" y1="598.506" x2="1282.18" y2="538.253" gradientUnits="userSpaceOnUse">
<stop stop-color="#FEBBBA"/>
<stop offset="1" stop-color="#FF928E"/>
</linearGradient>
<linearGradient id="paint58_linear_6_994" x1="1677.79" y1="753.515" x2="1676.38" y2="921.778" gradientUnits="userSpaceOnUse">
<stop stop-color="#09005D"/>
<stop offset="1" stop-color="#1A0F91"/>
</linearGradient>
<linearGradient id="paint59_linear_6_994" x1="1674.75" y1="587.978" x2="1682.31" y2="521.518" gradientUnits="userSpaceOnUse">
<stop stop-color="#FEBBBA"/>
<stop offset="1" stop-color="#FF928E"/>
</linearGradient>
<linearGradient id="paint60_linear_6_994" x1="1565.14" y1="33.7492" x2="1637.22" y2="428.177" gradientUnits="userSpaceOnUse">
<stop stop-color="#09005D"/>
<stop offset="1" stop-color="#1A0F91"/>
</linearGradient>
<linearGradient id="paint61_linear_6_994" x1="1627.92" y1="312.479" x2="1619.37" y2="293.258" gradientUnits="userSpaceOnUse">
<stop stop-color="#4F52FF"/>
<stop offset="1" stop-color="#4042E2"/>
</linearGradient>
<linearGradient id="paint62_linear_6_994" x1="1539.79" y1="-122.457" x2="1690.9" y2="382.23" gradientUnits="userSpaceOnUse">
<stop stop-color="#4F52FF"/>
<stop offset="1" stop-color="#4042E2"/>
</linearGradient>
<linearGradient id="paint63_linear_6_994" x1="1513.49" y1="189.043" x2="1386.87" y2="189.043" gradientUnits="userSpaceOnUse">
<stop stop-color="#FEBBBA"/>
<stop offset="1" stop-color="#FF928E"/>
</linearGradient>
<linearGradient id="paint64_linear_6_994" x1="1288.39" y1="105.032" x2="1068.67" y2="105.032" gradientUnits="userSpaceOnUse">
<stop stop-color="#FEBBBA"/>
<stop offset="1" stop-color="#FF928E"/>
</linearGradient>
<linearGradient id="paint65_linear_6_994" x1="1436.77" y1="-44.2574" x2="1366.31" y2="-125.53" gradientUnits="userSpaceOnUse">
<stop stop-color="#FEBBBA"/>
<stop offset="1" stop-color="#FF928E"/>
</linearGradient>
<linearGradient id="paint66_linear_6_994" x1="1278" y1="-133.32" x2="1360.88" y2="-10.05" gradientUnits="userSpaceOnUse">
<stop stop-color="#FEBBBA"/>
<stop offset="1" stop-color="#FF928E"/>
</linearGradient>
<linearGradient id="paint67_linear_6_994" x1="1446.24" y1="-474.688" x2="1362.5" y2="-201.887" gradientUnits="userSpaceOnUse">
<stop stop-color="#E1473D"/>
<stop offset="1" stop-color="#E9605A"/>
</linearGradient>
<linearGradient id="paint68_linear_6_994" x1="1444.58" y1="-57.458" x2="1375.1" y2="-137.6" gradientUnits="userSpaceOnUse">
<stop stop-color="#FEBBBA"/>
<stop offset="1" stop-color="#FF928E"/>
</linearGradient>
<linearGradient id="paint69_linear_6_994" x1="42.694" y1="1089.73" x2="175.043" y2="559.138" gradientUnits="userSpaceOnUse">
<stop stop-color="#4F52FF"/>
<stop offset="1" stop-color="#4042E2"/>
</linearGradient>
<linearGradient id="paint70_linear_6_994" x1="51.2949" y1="1091.88" x2="183.645" y2="561.282" gradientUnits="userSpaceOnUse">
<stop stop-color="#4F52FF"/>
<stop offset="1" stop-color="#4042E2"/>
</linearGradient>
<linearGradient id="paint71_linear_6_994" x1="1003.18" y1="1478.74" x2="1239.13" y2="532.814" gradientUnits="userSpaceOnUse">
<stop stop-color="#4F52FF"/>
<stop offset="1" stop-color="#4042E2"/>
</linearGradient>
<linearGradient id="paint72_linear_6_994" x1="1030.96" y1="1489.34" x2="1269.45" y2="533.199" gradientUnits="userSpaceOnUse">
<stop stop-color="#4F52FF"/>
<stop offset="1" stop-color="#4042E2"/>
</linearGradient>
<linearGradient id="paint73_linear_6_994" x1="1470.63" y1="-36.1013" x2="1431.58" y2="148.282" gradientUnits="userSpaceOnUse">
<stop stop-color="#09005D"/>
<stop offset="1" stop-color="#1A0F91"/>
</linearGradient>
<linearGradient id="paint74_linear_6_994" x1="569.255" y1="1384.08" x2="814.622" y2="400.397" gradientUnits="userSpaceOnUse">
<stop stop-color="#4F52FF"/>
<stop offset="1" stop-color="#4042E2"/>
</linearGradient>
</defs>
</svg>
