<svg width="902" height="727" viewBox="0 0 902 727" fill="none" xmlns="http://www.w3.org/2000/svg">
<path d="M354.467 203.424L470.762 257.621L423.792 323.584L341.856 273.262L354.467 203.424Z" fill="#FD8753"/>
<path d="M128.055 228.28C122.015 222.857 -4.72121 202.366 0.136098 401.859C4.99393 601.356 203.372 715.697 421.11 672.665C638.848 629.639 432.733 343.534 432.733 343.534L128.055 228.28Z" fill="#2E2865"/>
<path d="M142.109 604.846C141.809 604.846 141.504 604.758 141.234 604.57C83.1192 563.325 59.9567 501.269 59.7299 500.64C59.4208 499.792 59.8242 498.834 60.634 498.509C61.4365 498.17 62.3511 498.607 62.6638 499.455C62.889 500.074 85.7262 561.191 142.994 601.825C143.712 602.331 143.9 603.363 143.415 604.122C143.112 604.598 142.617 604.846 142.109 604.846Z" fill="#9364ED"/>
<path d="M96.4299 476.072C96.4299 489.833 157.123 500.993 231.989 500.993C306.855 500.993 367.55 489.833 367.55 476.072C367.55 462.305 306.855 451.149 231.989 451.149C157.123 451.149 96.4299 462.305 96.4299 476.072Z" fill="#201D4F"/>
<path d="M638.387 271.233C642.724 323.242 666.851 363.5 692.277 361.154C717.703 358.805 734.8 314.744 730.463 262.735C726.126 210.732 701.999 170.473 676.573 172.821C651.147 175.163 634.05 219.225 638.387 271.233Z" fill="#9364ED"/>
<path d="M798.213 326.51C753.301 348.704 725.686 386.406 736.539 410.705C747.393 435.014 792.598 436.721 837.509 414.524C882.421 392.331 910.031 354.629 899.183 330.329C888.33 306.02 843.125 304.311 798.213 326.51Z" fill="#9364ED"/>
<path d="M780.791 511.718C817.164 505.942 844.366 485.303 841.542 465.616C838.724 445.937 806.945 434.654 770.566 440.43C734.187 446.202 706.991 466.841 709.814 486.532C712.638 506.211 744.412 517.494 780.791 511.718Z" fill="#9364ED"/>
<path d="M626.963 373.537C593.298 335.19 550.801 318.872 532.054 337.097C513.306 355.318 525.406 401.174 559.077 439.522C592.748 477.868 635.239 494.181 653.987 475.966C672.734 457.741 660.634 411.882 626.963 373.537Z" fill="#9364ED"/>
<path d="M668.585 547.17C668.433 547.17 668.276 547.149 668.124 547.092C667.291 546.824 666.83 545.898 667.082 545.026C693.99 453.459 786.731 467.254 787.674 467.392C788.528 467.53 789.12 468.378 788.989 469.276C788.858 470.179 788.082 470.776 787.197 470.664C786.296 470.505 696.185 457.19 670.088 546.007C669.879 546.718 669.256 547.17 668.585 547.17Z" fill="#4D18A0"/>
<path d="M678.385 536.07C678.26 536.07 678.134 536.055 678.003 536.021C677.165 535.801 676.652 534.908 676.861 534.021C701.245 430.456 798.464 370.036 799.444 369.442C800.203 368.979 801.156 369.248 801.591 370.043C802.031 370.831 801.775 371.838 801.026 372.301C800.056 372.897 703.968 432.633 679.91 534.815C679.732 535.569 679.087 536.07 678.385 536.07Z" fill="#4D18A0"/>
<path d="M662.813 562.135C662.556 562.135 662.299 562.068 662.058 561.93C661.294 561.489 661.016 560.486 661.435 559.687C709.966 466.322 686.767 248.39 686.531 246.197C686.432 245.293 687.05 244.472 687.909 244.367C688.762 244.246 689.553 244.912 689.653 245.822C689.894 248.021 713.198 466.994 664.19 561.269C663.902 561.82 663.368 562.135 662.813 562.135Z" fill="#4D18A0"/>
<path d="M685.206 542.888C684.263 542.845 683.592 542.073 683.634 541.164C683.666 540.38 685.693 461.991 577.484 382.514C576.771 381.991 576.598 380.955 577.096 380.21C577.594 379.461 578.568 379.274 579.286 379.803C689.04 460.415 686.809 540.518 686.772 541.313C686.73 542.199 686.039 542.888 685.206 542.888Z" fill="#4D18A0"/>
<path d="M744.695 697.68H642.399C636.847 697.68 632.206 693.525 631.661 688.074L616.015 531.282C615.386 525.012 620.373 519.582 626.748 519.582H760.341C766.716 519.582 771.702 525.012 771.074 531.282L755.428 688.074C754.883 693.525 750.237 697.68 744.695 697.68Z" fill="#2E2865"/>
<path d="M722.051 697.68H619.756C614.208 697.68 609.567 693.525 609.023 688.074L593.371 531.282C592.748 525.012 597.729 519.582 604.104 519.582H737.702C744.077 519.582 749.059 525.012 748.435 531.282L732.784 688.074C732.239 693.525 727.598 697.68 722.051 697.68Z" fill="#5E1DBB"/>
<path d="M511.887 571.03L508.146 614.858H428.129V565.226L511.887 571.03Z" fill="#FD8753"/>
<path d="M369.16 591.283L361.078 635.234L273.01 613.254L288.397 565.225L369.16 591.283Z" fill="#FD8753"/>
<path d="M384.92 315.069C384.92 315.069 500.64 285.441 532.368 336.888C564.1 388.329 519.728 584.652 519.728 584.652H413.174L384.92 315.069Z" fill="#CC1594"/>
<path d="M139.145 360.31C139.145 360.31 110.016 454.406 158.303 473.37C206.59 492.335 306.74 492.913 306.74 492.913L261.582 576.76L406.82 622.03C406.82 622.03 527.433 392.897 454.021 331.823C380.609 270.76 226.094 359.678 226.094 359.678L139.145 360.31Z" fill="#E2209E"/>
<path d="M418.198 598.954L420.062 688.643L420.502 711.028C420.502 711.028 641.342 713.458 645.019 711.028C647.266 709.586 647.811 699.372 645.019 688.643C643.206 681.653 640.022 674.439 634.92 669.249C622.029 655.972 554.892 632.197 548.475 628.907C542.001 625.679 514.354 591.283 514.354 591.283L418.198 598.954Z" fill="#FFB700"/>
<path d="M327.889 461.214C327.384 461.214 326.872 461.302 326.353 461.478C319.706 463.725 313.145 478.987 309.805 488.575C319.602 480.954 331.893 469.646 332.006 464.251C332.02 463.495 331.779 462.976 331.2 462.514C330.105 461.644 329.01 461.214 327.889 461.214ZM306.74 494.566C306.413 494.566 306.085 494.457 305.809 494.248C305.269 493.828 305.042 493.096 305.238 492.423C305.603 491.183 314.274 462.096 325.389 458.331C328.063 457.416 330.658 457.939 333.097 459.881C334.476 460.977 335.183 462.514 335.149 464.322C334.94 474.186 310.426 492.246 307.633 494.274C307.364 494.468 307.051 494.566 306.74 494.566Z" fill="#5E1DBB"/>
<path d="M324.135 277.351V345.176L184.866 340.827L175.458 277.351H324.135Z" fill="#FFB700"/>
<path d="M296.956 99.258C296.956 99.258 316.193 21.0714 262.042 2.68623C207.891 -15.6989 199.33 66.3125 199.33 66.3125C199.33 66.3125 138.629 74.0776 134.328 135.373C128.951 211.972 200.175 204.064 200.175 204.064L268.676 180.195C268.676 180.195 337.907 146.643 296.956 99.258Z" fill="#5E1DBB"/>
<path d="M365.587 200.415C365.587 200.415 316.873 154.05 293.835 139.285C270.793 124.527 213.195 117.042 173.839 144.008C134.482 170.986 116.241 207.326 109.521 246.725C102.801 286.124 109.521 300.266 109.521 300.266H223.27L351.426 290.787C351.426 290.787 361.164 248.406 365.587 200.415Z" fill="#FFB700"/>
<path d="M265.32 110.887L265.263 111.73L263.569 127.64L262.288 140.118C262.288 140.118 263.119 143.099 249.336 141.181C230.868 138.525 225.421 129.724 225.421 129.724L226.501 100.338L232.054 101.859L265.32 110.887Z" fill="#FD8753"/>
<path d="M265.263 111.73L263.569 127.641C254.627 125.849 238.479 120.586 232.801 105.194C232.369 103.948 232.101 102.835 232.048 101.92L265.222 111.487L265.263 111.73Z" fill="black"/>
<path d="M276.015 35.7697C276.015 35.7697 290.623 78.5362 282.915 101.446C275.209 124.345 255.231 119.247 243.422 113.879C231.616 108.511 226.501 100.316 226.501 100.316C226.501 100.316 214.944 103.546 208.094 91.9558C201.241 80.3714 206.705 68.0044 213.342 65.552C219.976 63.0995 227.338 68.5445 227.338 68.5445L222.094 56.0397C222.094 56.0397 251.302 -3.53578 276.015 35.7697Z" fill="#FD8753"/>
<path d="M271.053 29.2391C271.053 29.2391 270.892 51.4325 249.113 59.9858C227.337 68.5446 213.342 65.552 213.342 65.552L216.553 36.8169L244.938 8.45108L268.088 18.0514L271.053 29.2391Z" fill="#5E1DBB"/>
<path d="M229.173 62.2672L228.289 74.8547L218.349 63.0554L229.173 62.2672Z" fill="#5E1DBB"/>
<path d="M274.972 314.722C274.972 314.722 210.787 305.992 203.413 300.266C185.893 286.654 107.428 291.702 107.428 291.702C107.428 291.702 108.562 337.633 138.321 360.868C168.08 384.096 279.445 362.514 279.445 362.514L274.972 314.722Z" fill="#FD8753"/>
<path d="M203.413 130.512C203.413 130.512 154.96 136.938 129.361 175.003C103.761 213.069 98.644 304.306 98.644 304.306L203.413 300.266V130.512Z" fill="#FFB700"/>
<path d="M420.062 688.643L420.502 711.028C420.502 711.028 641.341 713.458 645.019 711.028C647.266 709.586 647.81 699.372 645.019 688.643H420.062Z" fill="white"/>
<path d="M534.258 629.221C533.703 629.221 533.169 628.918 532.881 628.367C532.462 627.572 532.734 626.565 533.494 626.123C546.673 618.468 567.934 603.853 568.888 597.222C568.977 596.607 568.856 596.176 568.495 595.78C568.207 595.465 567.662 594.904 566.578 595.068C558.516 595.128 539.214 614.925 532.457 622.541C531.901 623.17 530.974 623.234 530.33 622.711C529.691 622.171 529.549 621.206 530 620.492C537.118 609.314 554.755 578.28 551.005 569.051C550.502 567.815 549.601 567.116 548.171 566.857C546.065 566.47 544.117 566.999 542.205 568.493C531.718 576.639 527.779 608.52 527.742 608.834C527.627 609.745 526.836 610.346 525.982 610.273C525.123 610.159 524.516 609.332 524.62 608.428C524.788 607.054 528.774 574.814 540.335 565.83C542.938 563.798 545.751 563.06 548.711 563.593C551.178 564.046 552.974 565.49 553.896 567.755C557.374 576.308 547.474 596.589 539.963 609.982C548.27 601.786 559.768 591.81 566.557 591.756C568.249 591.668 569.7 592.322 570.758 593.487C571.8 594.626 572.23 596.092 571.994 597.719C570.496 608.128 538.643 626.905 535.018 629.017C534.777 629.159 534.515 629.221 534.258 629.221Z" fill="white"/>
<path d="M235.207 670.863L341.019 752.644H464.057C464.057 752.644 479.797 742.657 466.744 725.053C466.032 723.957 465.094 722.866 464.057 721.71C442.827 698.281 403.719 672.478 394.668 667.634C385.558 662.784 374.312 616.733 374.312 616.733L273.001 585.854L245.959 646.625L235.207 670.863Z" fill="#FFB700"/>
<path d="M394.652 669.304C393.913 669.304 393.259 668.757 393.112 667.969C392.944 667.076 393.5 666.2 394.353 666.029C406.501 663.522 437.678 654.538 436.075 643.202C435.866 641.742 435.237 640.782 434.09 640.194C426.767 636.435 403.688 648.25 395.422 653.139C394.741 653.524 393.877 653.358 393.4 652.697C392.929 652.043 392.986 651.115 393.536 650.538C398.895 644.855 412.603 628.268 411.718 619.825C411.55 618.236 410.885 617.101 409.628 616.253C408.601 615.564 407.449 615.416 406.097 615.818C397.025 618.479 383.809 643.148 379.482 652.422C379.1 653.249 378.152 653.58 377.377 653.182C376.596 652.781 376.277 651.789 376.659 650.973C377.319 649.557 392.976 616.242 405.249 612.632C407.48 611.993 409.523 612.251 411.32 613.465C413.384 614.858 414.567 616.875 414.84 619.465C415.641 627.12 407.648 638.605 401.755 645.931C411.749 640.767 428.234 633.497 435.478 637.223C437.547 638.291 438.825 640.194 439.186 642.723C441.512 659.195 399.728 668.288 394.956 669.269C394.851 669.291 394.751 669.304 394.652 669.304Z" fill="white"/>
<path d="M235.207 670.863L341.019 752.644H464.057C464.057 752.644 479.797 742.657 466.744 725.053H348.972L245.959 646.625L235.207 670.863Z" fill="white"/>
<path d="M322.985 292.44C322.093 292.424 321.399 291.674 321.413 290.759C322.285 233.239 312.14 196.227 312.038 195.863C311.792 194.981 312.267 194.061 313.102 193.807C313.92 193.554 314.809 194.044 315.05 194.926C315.156 195.295 325.438 232.749 324.554 290.814C324.542 291.718 323.842 292.44 322.985 292.44Z" fill="white"/>
<path d="M254.37 141.859C244.487 141.859 230.96 139.936 223.383 130.633C222.82 129.939 222.898 128.891 223.555 128.302C224.207 127.701 225.202 127.778 225.773 128.478C237.239 142.57 265.615 137.709 265.9 137.654C266.761 137.505 267.569 138.112 267.713 139.01C267.856 139.908 267.281 140.762 266.426 140.917C265.932 140.999 260.96 141.859 254.37 141.859Z" fill="white"/>
<path d="M210.388 261.214C210.306 261.214 210.226 261.247 210.114 261.33C207.255 263.441 205.669 278.04 205.162 291.261C209.27 279.82 213.033 266.35 211.266 262.068C211.024 261.484 210.756 261.324 210.574 261.258C210.507 261.231 210.447 261.214 210.388 261.214ZM203.413 301.919C203.308 301.919 203.204 301.908 203.095 301.886C202.367 301.727 201.843 301.049 201.843 300.266C201.843 294.11 202.152 263.176 208.305 258.624C209.308 257.874 210.49 257.715 211.638 258.144C212.413 258.436 213.479 259.131 214.149 260.751C217.629 269.178 206.175 297.692 204.855 300.916C204.605 301.534 204.032 301.919 203.413 301.919Z" fill="white"/>
<path d="M259.053 98.3542C258.806 98.3542 258.552 98.2936 258.317 98.1613C258.155 98.0676 254.382 95.9128 252.383 90.9913C252.041 90.1536 252.412 89.1782 253.207 88.8255C254.009 88.4617 254.93 88.8585 255.272 89.6907C256.844 93.554 259.767 95.2294 259.794 95.246C260.561 95.6758 260.852 96.6733 260.443 97.4834C260.158 98.0401 259.616 98.3542 259.053 98.3542Z" fill="black"/>
<path d="M280.108 51.6693C279.985 51.6693 279.856 51.6583 279.732 51.6252L272.468 49.7404C271.623 49.5255 271.109 48.6272 271.316 47.7399C271.525 46.8526 272.374 46.3235 273.219 46.533L280.482 48.4177C281.328 48.6327 281.841 49.531 281.635 50.4183C281.459 51.1733 280.816 51.6693 280.108 51.6693Z" fill="black"/>
<path d="M254.169 72.1874C253.336 72.1874 252.641 71.4985 252.6 70.6167L252.238 62.7193C252.217 62.2618 252.377 61.8155 252.681 61.4903L256.485 57.3789C257.085 56.7176 258.081 56.7121 258.707 57.3459C259.33 57.9797 259.342 59.0268 258.736 59.6826L255.411 63.2814L255.741 70.4569C255.781 71.3718 255.115 72.1433 254.247 72.1874C254.223 72.1874 254.196 72.1874 254.169 72.1874Z" fill="black"/>
<path d="M276.032 72.7275C275.199 72.7275 274.503 72.0386 274.462 71.1568L274.1 63.2594C274.08 62.8019 274.24 62.3555 274.545 62.0249L278.348 57.9136C278.95 57.2522 279.944 57.2412 280.57 57.8805C281.192 58.5198 281.204 59.5669 280.599 60.2172L277.274 63.8215L277.603 70.9915C277.644 71.9064 276.977 72.6834 276.11 72.7275C276.085 72.7275 276.058 72.7275 276.032 72.7275Z" fill="black"/>
<path d="M320.247 362.058H475.241C481.61 362.058 486.775 356.623 486.775 349.927V251.95C486.775 245.249 481.61 239.815 475.241 239.815H320.247C313.879 239.815 308.715 245.249 308.715 251.95V349.927C308.715 356.623 313.879 362.058 320.247 362.058Z" fill="white"/>
<path d="M330.531 362.058H485.528C491.898 362.058 497.057 356.623 497.057 349.927V251.95C497.057 245.249 491.898 239.815 485.528 239.815H330.531C324.163 239.815 318.999 245.249 318.999 251.95V349.927C318.999 356.623 324.163 362.058 330.531 362.058Z" fill="#07CBF5"/>
<path d="M395.668 300.939C395.668 308.12 401.205 313.939 408.03 313.939C414.856 313.939 420.387 308.12 420.387 300.939C420.387 293.752 414.856 287.938 408.03 287.938C401.205 287.938 395.668 293.752 395.668 300.939Z" fill="white"/>
<path d="M270.687 89.1948C270.491 89.1948 270.292 89.1562 270.102 89.079C269.296 88.7374 268.905 87.7729 269.228 86.9242C273.271 76.3648 266.32 69.035 266.249 68.9634C265.631 68.3241 265.621 67.277 266.227 66.6211C266.836 65.9763 267.826 65.9653 268.449 66.5936C268.801 66.9573 276.965 75.5657 272.144 88.1642C271.901 88.809 271.309 89.1948 270.687 89.1948Z" fill="black"/>
<path d="M224.698 87.1997C224.281 87.1997 223.864 87.0289 223.555 86.6817L212.645 74.5076C212.047 73.8407 212.078 72.7936 212.708 72.1654C213.342 71.5481 214.33 71.5757 214.93 72.237L225.842 84.4111C226.438 85.078 226.407 86.1196 225.777 86.7533C225.474 87.0454 225.085 87.1997 224.698 87.1997Z" fill="black"/>
<path d="M211.282 84.5767C210.582 84.5767 209.946 84.0806 209.762 83.3421C209.545 82.4493 210.051 81.551 210.889 81.3251L219.79 78.9112C220.661 78.6742 221.488 79.2198 221.705 80.0961C221.922 80.9834 221.417 81.8817 220.578 82.1076L211.677 84.5215C211.544 84.5601 211.411 84.5767 211.282 84.5767Z" fill="black"/>
<path d="M264.805 319.511C264.805 319.511 283.863 294.953 291.278 292.165C298.3 289.525 308.621 288.13 308.621 288.13L310.524 300.938C310.524 300.938 332.555 304.355 350.904 311.977C369.254 319.599 366.762 328.301 366.762 328.301C366.762 328.301 378.581 334.832 374.208 340.315C369.835 345.811 351.037 342.459 351.037 342.459C351.037 342.459 374.978 349.563 365.847 355.918C356.717 362.267 335.456 362.542 335.456 362.542C335.456 362.542 290.165 375.201 273.579 359.791C256.995 344.384 264.805 319.511 264.805 319.511Z" fill="#FD8753"/>
<path d="M365.588 328.318C365.359 328.296 328.76 320.746 328.76 320.746C328.113 320.608 327.693 319.952 327.818 319.269C327.947 318.591 328.544 318.128 329.219 318.277L365.819 325.832C366.466 325.965 366.885 326.62 366.758 327.304C366.648 327.905 366.148 328.318 365.588 328.318Z" fill="black"/>
<path d="M353.483 344.08C353.249 344.057 330.302 339.234 330.302 339.234C329.655 339.103 329.236 338.442 329.363 337.757C329.494 337.081 330.128 336.629 330.767 336.772L353.714 341.594C354.362 341.727 354.782 342.388 354.653 343.071C354.538 343.671 354.039 344.08 353.483 344.08Z" fill="black"/>
<path d="M310.524 302.189C310.426 302.189 300.385 301.341 300.385 301.341C299.728 301.28 299.235 300.679 299.29 299.985C299.343 299.291 300.009 298.861 300.573 298.833L310.616 299.682C311.273 299.742 311.763 300.349 311.711 301.043C311.659 301.699 311.137 302.189 310.524 302.189Z" fill="black"/>
<path d="M459.783 274.755C461.202 271.917 463.397 269.613 465.901 267.789C474.376 261.611 501.028 248.72 508.937 256.618C516.517 264.185 501.924 271.829 501.924 271.829C501.924 271.829 514.851 268.142 514.223 278.271C513.699 286.731 505.459 289.525 505.459 289.525C505.459 289.525 519.256 287.039 514.244 299.164C509.236 311.278 480.699 322.063 470.196 321.721C459.694 321.39 467.132 306.896 467.132 306.896C467.132 306.896 455.854 304.962 455.854 298.387C455.854 291.421 464.722 288.775 464.722 288.775C464.722 288.775 454.67 284.967 459.783 274.755Z" fill="#FD8753"/>
<path d="M468.028 289.183C467.572 289.183 467.142 288.908 466.938 288.445C466.671 287.816 466.933 287.067 467.535 286.786L501.426 270.682C502.023 270.396 502.73 270.677 503.008 271.311C503.275 271.939 503.013 272.688 502.411 272.975L468.52 289.079C468.358 289.15 468.19 289.183 468.028 289.183Z" fill="black"/>
<path d="M471.265 306.499C470.804 306.499 470.369 306.218 470.17 305.744C469.908 305.11 470.186 304.372 470.788 304.091L504.983 288.373C505.59 288.109 506.287 288.39 506.554 289.023C506.816 289.657 506.539 290.396 505.936 290.677L471.742 306.395C471.59 306.466 471.427 306.499 471.265 306.499Z" fill="black"/>
</svg>
