<svg width="160" height="134" viewBox="0 0 160 134" fill="none" xmlns="http://www.w3.org/2000/svg">
<path d="M123.599 63.6293C112.459 77.7035 64.5988 55.1907 44.1184 81.0663C30.2607 70.098 -8.23748 90.0135 2.9022 75.9393C23.466 66.0712 21.7513 29.5667 79.0298 14.4001C92.8875 25.3683 134.739 49.5551 123.599 63.6293Z" fill="#7BC8FF"/>
<path d="M24.998 63.714L25.072 57.942L25.738 27.01C25.738 26.418 26.0587 25.9493 26.7 25.604C27.3413 25.2587 28.1553 25.086 29.142 25.086C31.51 25.086 32.694 25.9247 32.694 27.602C32.694 28.1447 32.398 32.2887 31.806 40.034C31.2633 47.7793 30.992 52.4167 30.992 53.946C30.992 53.946 30.992 56.5607 30.992 61.79C30.992 65.49 31.2387 67.5127 31.732 67.858C32.472 68.1047 33.3353 68.228 34.322 68.228L44.978 67.488C47.2967 67.488 48.456 68.3267 48.456 70.004C48.456 71.336 47.8147 72.3227 46.532 72.964C45.2987 73.556 44.0653 73.9013 42.832 74C41.5987 74.0493 40.094 74.074 38.318 74.074C30.5727 74.074 26.3793 73.8273 25.738 73.334C25.3927 73.038 25.1953 71.928 25.146 70.004C25.0967 68.0307 25.0473 66.6493 24.998 65.86C24.998 65.0707 24.998 64.3553 24.998 63.714ZM52.3092 56.684C52.3092 53.3787 53.1725 50.3693 54.8992 47.656C56.6752 44.9427 58.9199 42.92 61.6332 41.588C64.3465 40.2067 66.9859 39.516 69.5512 39.516C72.1165 39.516 74.1639 39.8367 75.6932 40.478C77.2719 41.07 78.0612 41.884 78.0612 42.92C78.0612 43.9067 77.7652 44.918 77.1732 45.954C76.6305 46.9407 75.8905 47.434 74.9532 47.434C74.6079 47.434 73.6459 47.1627 72.0672 46.62C70.5379 46.028 69.5512 45.732 69.1072 45.732C66.2459 45.732 63.8039 46.7927 61.7812 48.914C59.7585 50.986 58.7472 53.7487 58.7472 57.202C58.7472 60.6553 59.2899 63.2453 60.3752 64.972C61.5099 66.6493 63.4339 67.488 66.1472 67.488C67.2325 67.488 69.0825 66.8713 71.6972 65.638C74.3612 64.3553 76.0139 63.714 76.6552 63.714C77.2965 63.714 77.8145 63.9113 78.2092 64.306C78.6039 64.7007 78.8012 65.194 78.8012 65.786C78.8012 66.97 78.0365 68.228 76.5072 69.56C75.0272 70.8427 73.1772 71.928 70.9572 72.816C68.7372 73.6547 66.7392 74.074 64.9632 74.074C61.0165 74.074 57.9085 72.52 55.6392 69.412C53.4192 66.304 52.3092 62.0613 52.3092 56.684ZM95.1327 39.516C98.6847 39.516 101.595 41.218 103.865 44.622C106.183 48.026 107.343 52.1207 107.343 56.906C107.343 61.642 106.159 65.6873 103.791 69.042C101.472 72.3967 98.364 74.074 94.4667 74.074C90.6187 74.074 87.5107 72.372 85.1427 68.968C82.7747 65.5147 81.5907 61.6913 81.5907 57.498C81.5907 52.1207 82.676 47.8287 84.8467 44.622C87.1653 41.218 90.594 39.516 95.1327 39.516ZM94.2447 45.584C92.1727 45.584 90.4707 46.6693 89.1387 48.84C87.8067 51.0107 87.1407 53.3047 87.1407 55.722C87.1407 59.4713 87.8807 62.3327 89.3607 64.306C90.8407 66.2793 92.518 67.266 94.3927 67.266C97.7473 67.266 99.8933 65.8107 100.831 62.9C101.225 61.5187 101.423 59.792 101.423 57.72C101.423 49.6293 99.03 45.584 94.2447 45.584ZM116.098 74.074C114.816 74.074 114.051 73.3587 113.804 71.928C113.804 61.9627 113.212 53.0827 112.028 45.288C112.028 44.3013 112.374 43.4133 113.064 42.624C113.804 41.8347 114.618 41.44 115.506 41.44C116.444 41.44 117.134 41.958 117.578 42.994C119.404 40.5767 121.846 39.368 124.904 39.368C128.802 39.368 131.811 41.2427 133.932 44.992C136.399 41.44 139.655 39.664 143.7 39.664C147.795 39.664 150.854 41.292 152.876 44.548C154.208 46.5707 155.146 49.2347 155.688 52.54C156.231 55.8453 156.502 60.532 156.502 66.6C156.502 68.968 156.256 70.818 155.762 72.15C155.269 73.4327 154.233 74.074 152.654 74.074C151.372 74.074 150.73 73.26 150.73 71.632L150.952 62.382C150.952 51.282 148.066 45.732 142.294 45.732C140.469 45.732 139.186 46.3733 138.446 47.656C137.608 49.1853 137.114 50.7887 136.966 52.466C136.769 55.426 136.67 58.1147 136.67 60.532V71.262C136.67 72.0513 136.276 72.7173 135.486 73.26C134.697 73.8027 133.883 74.074 133.044 74.074C131.959 74.074 131.268 73.3587 130.972 71.928L131.194 56.61C131.194 51.1833 130.282 47.804 128.456 46.472C127.568 45.8307 126.212 45.51 124.386 45.51C122.61 45.51 121.278 46.176 120.39 47.508C119.552 48.84 119.132 50.986 119.132 53.946L119.576 67.71C119.576 71.9527 118.417 74.074 116.098 74.074Z" fill="white"/>
</svg>
