<svg width="138" height="139" viewBox="0 0 138 139" fill="none" xmlns="http://www.w3.org/2000/svg">
<circle cx="7.5" cy="131.5" r="7.5" fill="#8EC9FF"/>
<circle cx="32.5" cy="131.5" r="7.5" fill="#8EC9FF"/>
<circle cx="57.5" cy="131.5" r="7.5" fill="#8EC9FF"/>
<circle cx="7.5" cy="81.5" r="7.5" fill="#8EC9FF"/>
<circle cx="32.5" cy="81.5" r="7.5" fill="#8EC9FF"/>
<circle cx="57.5" cy="81.5" r="7.5" fill="#8EC9FF"/>
<circle cx="7.5" cy="106.5" r="7.5" fill="#8EC9FF"/>
<circle cx="32.5" cy="106.5" r="7.5" fill="#8EC9FF"/>
<circle cx="57.5" cy="106.5" r="7.5" fill="#8EC9FF"/>
<circle cx="80.5" cy="131.5" r="7.5" fill="#8EC9FF"/>
<circle cx="105.5" cy="131.5" r="7.5" fill="#8EC9FF"/>
<circle cx="130.5" cy="131.5" r="7.5" fill="#8EC9FF"/>
<circle cx="80.5" cy="81.5" r="7.5" fill="#8EC9FF"/>
<circle cx="105.5" cy="81.5" r="7.5" fill="#8EC9FF"/>
<circle cx="130.5" cy="81.5" r="7.5" fill="#8EC9FF"/>
<circle cx="80.5" cy="106.5" r="7.5" fill="#8EC9FF"/>
<circle cx="105.5" cy="106.5" r="7.5" fill="#8EC9FF"/>
<circle cx="130.5" cy="106.5" r="7.5" fill="#8EC9FF"/>
<circle cx="80.5" cy="57.5" r="7.5" fill="#8EC9FF"/>
<circle cx="105.5" cy="57.5" r="7.5" fill="#8EC9FF"/>
<circle cx="130.5" cy="57.5" r="7.5" fill="#8EC9FF"/>
<circle cx="80.5" cy="7.5" r="7.5" fill="#8EC9FF"/>
<circle cx="105.5" cy="7.5" r="7.5" fill="#8EC9FF"/>
<circle cx="130.5" cy="7.5" r="7.5" fill="#8EC9FF"/>
<circle cx="80.5" cy="32.5" r="7.5" fill="#8EC9FF"/>
<circle cx="105.5" cy="32.5" r="7.5" fill="#8EC9FF"/>
<circle cx="130.5" cy="32.5" r="7.5" fill="#8EC9FF"/>
<circle cx="7.5" cy="57.5" r="7.5" fill="#8EC9FF"/>
<circle cx="32.5" cy="57.5" r="7.5" fill="#8EC9FF"/>
<circle cx="57.5" cy="57.5" r="7.5" fill="#8EC9FF"/>
<circle cx="7.5" cy="7.5" r="7.5" fill="#8EC9FF"/>
<circle cx="32.5" cy="7.5" r="7.5" fill="#8EC9FF"/>
<circle cx="57.5" cy="7.5" r="7.5" fill="#8EC9FF"/>
<circle cx="7.5" cy="32.5" r="7.5" fill="#8EC9FF"/>
<circle cx="32.5" cy="32.5" r="7.5" fill="#8EC9FF"/>
<circle cx="57.5" cy="32.5" r="7.5" fill="#8EC9FF"/>
</svg>
